<svg width="82" height="21" fill="none" xmlns="http://www.w3.org/2000/svg"><path d="M68.342 3.087h-2.72l5.806 7.827 1.05-2.316-4.136-5.51zm5.802 7.75l-1.342 1.89 3.874 5.295 2.893.043-5.425-7.228z" fill="#fff"/><path d="M81.731 4.289c.656-2.826.59-6.885-5.896 0-6.39 6.782-9.689 13.73-10.318 16.69C69.571 13.284 71.929 9.998 76.45 5.2c4.79-5.084 5.28-2.607 5.28-.91zM0 3.151h11.74V5.15H7.072v12.425H4.894V5.15H0v-2zm26.242 7.15c0 1.264-.187 2.39-.561 3.38-.375.975-.883 1.75-1.527 2.328a6.74 6.74 0 01-2.088 1.319 6.739 6.739 0 01-2.402.432c-1.855 0-3.412-.687-4.669-2.06-1.257-1.388-1.885-3.187-1.885-5.399 0-2.308.613-4.107 1.84-5.398 1.242-1.305 2.829-1.958 4.76-1.958 1.93 0 3.501.687 4.713 2.06 1.213 1.36 1.819 3.126 1.819 5.296zm-10.843 0c0 1.539.404 2.81 1.212 3.812.823 1.003 1.841 1.504 3.053 1.504 1.198 0 2.215-.494 3.053-1.483.838-.99 1.258-2.267 1.258-3.833a6.81 6.81 0 00-.45-2.452 4.81 4.81 0 00-1.436-2.06c-.674-.577-1.467-.866-2.38-.866-.913 0-1.706.268-2.38.804a4.73 4.73 0 00-1.48 1.999 7.265 7.265 0 00-.45 2.575zm22.54.083v7.19H35.76v-5.79h-5.7v5.79h-2.177V3.152h2.177v5.193l5.702-5.193h3.053l-7.228 6.635h6.33l.023.598zm12.067-7.233V5.15H41.97v3.894h6.577v1.999H41.97v4.533h8.036v1.999H39.77V3.15h10.236zm2.699 0h4.445l3.434 12.425h.54V3.151H63.3v14.424h-4.266L55.466 5.15h-.584v12.425h-2.177V3.15z" fill="#fff"/></svg>