<svg width="16" height="16" fill="none" xmlns="http://www.w3.org/2000/svg"><g clip-path="url(#clip0_21_1123)"><path d="M8 16A8 8 0 118 0a8 8 0 010 16zm6.2-6.4a6.4 6.4 0 000-3.2h-3.056a23.185 23.185 0 010 3.2H14.2zm-.656 1.6h-2.576a11.52 11.52 0 01-.76 2.808 6.424 6.424 0 003.336-2.808zm-7.08-1.6h3.072a19.681 19.681 0 000-3.2H6.464a19.681 19.681 0 000 3.2zm.2 1.6c.328 1.92.904 3.2 1.336 3.2.432 0 1.008-1.28 1.336-3.2H6.664zM1.8 9.6h3.056a23.2 23.2 0 010-3.2H1.8a6.4 6.4 0 000 3.2zm.656 1.6a6.424 6.424 0 003.336 2.808c-.336-.768-.592-1.728-.76-2.808H2.456zm11.088-6.4a6.424 6.424 0 00-3.336-2.808c.336.768.592 1.728.76 2.808h2.576zm-6.88 0h2.672C9.008 2.88 8.432 1.6 8 1.6c-.432 0-1.008 1.28-1.336 3.2zm-4.208 0h2.576c.16-1.08.424-2.04.76-2.808A6.424 6.424 0 002.456 4.8z" fill="#fff"/></g><defs><clipPath id="clip0_21_1123"><path fill="#fff" d="M0 0h16v16H0z"/></clipPath></defs></svg>