<svg width="20" height="20" fill="none" xmlns="http://www.w3.org/2000/svg"><path d="M10 10.416a2.917 2.917 0 100 5.834 2.917 2.917 0 000-5.834zm-1.25 2.917a1.25 1.25 0 112.5 0 1.25 1.25 0 01-2.5 0z" fill="#fff"/><path d="M14.605 4.263L11.955.55l-9.74 7.782-.54-.006v.008H1.25v10h17.5v-10h-.802l-1.595-4.666-1.748.596zm1.582 4.07H7.832l6.224-2.121 1.268-.406.864 2.527zm-3.229-3.508l-6.425 2.19 5.089-4.065 1.336 1.875zM2.917 15.14v-3.617A2.5 2.5 0 004.442 10h11.116a2.5 2.5 0 001.525 1.525v3.617a2.5 2.5 0 00-1.525 1.525H4.443a2.508 2.508 0 00-1.526-1.526z" fill="#fff"/></svg>