<svg width="15" height="18" fill="none" xmlns="http://www.w3.org/2000/svg"><g clip-path="url(#clip0_21_55)" fill-rule="evenodd" clip-rule="evenodd" fill="#fff"><path d="M8.903 6.412a10.66 10.66 0 001.844-1.232c.14.307.155.575.083.791a.871.871 0 01-.273.39 1.212 1.212 0 01-.497.243 1.557 1.557 0 01-1.157-.192zm.09 2.813l.689.421c-1.406.834-1.788 2.383-2.242 3.892-.454-1.509-.836-3.058-2.242-3.892l.689-.42a.341.341 0 00.162-.139.373.373 0 00.055-.213c-.063-1.412.298-2.037.784-2.43a.88.88 0 01.552-.21.88.88 0 01.552.21c.486.393.847 1.018.784 2.43a.373.373 0 00.055.213.345.345 0 00.162.138zM7.44 0c.796.023 1.593.186 2.286.504a5.7 5.7 0 011.331.86c.183.158.334.31.5.485.447.017 1.101-.51 1.405-1.002-.522 1.813-2.907 3.955-4.558 4.775l-.001-.001c-.297-.24-.63-.36-.963-.36-.333 0-.666.12-.963.36h-.001C4.825 4.803 2.44 2.662 1.918.848c.304.492.958 1.019 1.405 1.002.166-.175.317-.327.5-.484a5.7 5.7 0 011.331-.86C5.847.185 6.644.022 7.44 0zM5.977 6.412A10.659 10.659 0 014.133 5.18c-.14.307-.155.575-.083.791a.872.872 0 00.273.39c.137.115.308.198.497.243.358.085.777.035 1.157-.192z"/><path d="M11.473 4.501c.365-.39.686-.821.944-1.206l.132.262c.422.895.642 1.786.642 2.79l-.001 1.591.008.825c.03 2.026.444 4.076 1.382 5.952l-1.962-1.675-1.389 2.385-1.458-1.454-2.331 4.005-2.33-4.005-1.46 1.454-1.388-2.385L.3 14.715c.938-1.876 1.352-3.926 1.383-5.952l.007-.825V6.346c0-1.003.219-1.894.642-2.79l.13-.26c.26.384.58.815.945 1.205l-.114.25C3.073 5.239 3 5.783 3.171 6.3c.111.334.314.62.576.838.253.212.554.354.869.43.204.048.413.068.62.061a5.63 5.63 0 00-.07.9L3.315 9.658l1.428.848c.114.068.223.145.325.232 1.178 1.12 1.886 4.431 2.372 6.049.487-1.618 1.195-4.93 2.372-6.05.102-.086.211-.163.325-.231l1.429-.848-1.851-1.132a5.63 5.63 0 00-.071-.899 2.32 2.32 0 00.62-.062 2.11 2.11 0 00.87-.43c.261-.218.464-.503.575-.837.172-.517.099-1.06-.122-1.547l-.114-.251z"/></g><defs><clipPath id="clip0_21_55"><path fill="#fff" transform="translate(.3)" d="M0 0h14.28v18H0z"/></clipPath></defs></svg>