<svg width="17" height="18" fill="none" xmlns="http://www.w3.org/2000/svg"><g clip-path="url(#clip0_21_61)"><path fill-rule="evenodd" clip-rule="evenodd" d="M6.395 1.027c-1.071.558-1.947 1.03-1.947 1.05 0 .05 2.57 1.35 2.662 1.348.041-.002.342-.14.669-.308l.593-.306.648.334.649.333L10.73 3c1.6-.719 1.766-.798 1.74-.824-.035-.035-.609-.343-2.165-1.163C9.553.618 8.823.23 8.682.151a1.462 1.462 0 00-.297-.14c-.023 0-.919.458-1.99 1.016zM1.697 3.46l-1.115.576v2.528c0 1.39.015 2.527.033 2.527.018 0 .566-.238 1.219-.528l1.186-.529V5.37l.58.316 1.341.728.762.412.338-.153c.213-.096.425-.193.636-.291.164-.077.565-.257.892-.402.328-.145.63-.291.673-.324.057-.044-.638-.429-2.572-1.422-1.457-.748-2.697-1.358-2.754-1.355-.057.003-.606.264-1.219.581zm10.974.162c-.76.343-1.381.637-1.382.654 0 .016.413.262.92.546.506.284.92.532.92.55 0 .02-.448.236-.995.483l-3.078 1.39-3.835 1.734-1.933.874c-1.97.892-2.513 1.14-2.587 1.182-.075.043-.092.291-.105 1.538L.58 14.061l.997.508.997.508 1.383-.624c.76-.343 1.382-.641 1.382-.663 0-.022-.14-.114-.312-.204-.171-.09-.526-.29-.788-.443a6.194 6.194 0 00-.58-.314c-.057-.018-.103-.05-.102-.072.001-.021.61-.31 1.353-.643A1135.45 1135.45 0 009.83 9.9l3.18-1.437c.933-.42 2.017-.912 2.41-1.092l.713-.327.016-1.505.015-1.505-1.01-.519c-.557-.285-1.033-.518-1.057-.517-.025 0-.667.282-1.426.625zm3.19 5.428c-.148.073-.443.21-.653.303-.211.094-.611.274-.89.401l-.505.23-.011 1.322c-.006.727-.033 1.318-.06 1.314-.06-.009-1.007-.495-1.959-1.005-.687-.368-.73-.383-.892-.303a77.33 77.33 0 01-1.24.556c-.589.26-1.09.49-1.113.51-.024.02 1.161.663 2.633 1.427l2.676 1.39 1.143-.591c.628-.326 1.163-.622 1.187-.66.056-.083.051-5.037-.004-5.03a2.683 2.683 0 00-.311.136zm-6.33 5.815l-.594.256c-.598.26-.481.268-1.193-.087-.474-.236-.678-.309-.767-.273-.067.026-.64.284-1.273.573-.634.288-1.174.524-1.2.524-.267 0 .175.264 1.88 1.124l2 1.009.842-.416c.462-.228 1.396-.686 2.074-1.016.678-.331 1.224-.61 1.214-.62-.01-.011-.578-.303-1.262-.65l-1.244-.628-.476.204z" fill="#fff"/></g><defs><clipPath id="clip0_21_61"><path fill="#fff" transform="translate(.58)" d="M0 0h15.653v18H0z"/></clipPath></defs></svg>