<svg width="32" height="32" fill="none" xmlns="http://www.w3.org/2000/svg"><path d="M12 4H5.333A1.333 1.333 0 004 5.333V12a1.333 1.333 0 001.333 1.333H12A1.333 1.333 0 0013.333 12V5.333A1.333 1.333 0 0012 4zm0 14.667H5.333A1.333 1.333 0 004 20v6.667A1.333 1.333 0 005.333 28H12a1.333 1.333 0 001.333-1.333V20A1.333 1.333 0 0012 18.667zm11.333-5.334a4.667 4.667 0 100-9.334 4.667 4.667 0 000 9.334zm3.334 5.334H20A1.333 1.333 0 0018.667 20v6.667A1.333 1.333 0 0020 28h6.667A1.334 1.334 0 0028 26.667V20a1.333 1.333 0 00-1.333-1.333z" fill="#fff" stroke="#fff" stroke-width="2.667" stroke-linejoin="round"/></svg>