<svg width="426" height="426" fill="none" xmlns="http://www.w3.org/2000/svg"><path fill="#11111D" d="M0 0h426v426H0z"/><path d="M94.572 158.444h90.909v15.002h-36.155v93.258h-16.861v-93.258H94.572v-15.002zm131.953-5.259h-21.059l44.953 58.745 8.136-17.385-32.03-41.36zm44.921 58.167l-10.391 14.184 29.999 39.744 22.406.324-42.014-54.252z" fill="#fff"/><path d="M330.201 162.2c5.073-21.205 4.565-51.674-45.655 0-49.478 50.909-75.026 103.061-79.897 125.269 31.388-57.741 49.65-82.404 84.652-118.419 37.095-38.168 40.9-19.573 40.9-6.85z" fill="#fff"/></svg>