<svg width="18" height="18" fill="none" xmlns="http://www.w3.org/2000/svg"><path d="M11.88 9.518l-.05.015c-.1.03-.205.046-.31.047-.457 0-.715-.31-.577-.691.101-.279.368-.514.693-.623.504-.184.857-.603.857-1.091 0-.658-.64-1.19-1.429-1.19s-1.429.532-1.429 1.19v3.65c0 .878-.508 1.648-1.27 2.084a2.873 2.873 0 01-1.427.377c-1.488 0-2.699-1.104-2.699-2.46 0-.433.123-.838.338-1.19A2.668 2.668 0 016.13 8.48a1.12 1.12 0 01.345-.055c.459 0 .718.31.58.693-.095.26-.35.483-.646.602a1.85 1.85 0 00-.104.039c-.471.195-.796.598-.796 1.066 0 .658.64 1.19 1.429 1.19s1.428-.532 1.428-1.19v-3.65c0-.878.509-1.648 1.27-2.084a2.872 2.872 0 011.428-.377c1.488 0 2.698 1.104 2.698 2.46 0 .42-.117.833-.338 1.19a2.674 2.674 0 01-1.544 1.154zM1.502 9a7.5 7.5 0 1015 0 7.5 7.5 0 00-15 0z" fill="#fff"/></svg>