<svg width="18" height="18" fill="none" xmlns="http://www.w3.org/2000/svg"><path d="M16.05 10.688l-5.363 5.362c-.15.15-.318.262-.506.337a1.504 1.504 0 01-.562.113c-.188 0-.375-.038-.563-.113a1.498 1.498 0 01-.506-.337L1.931 9.431a1.48 1.48 0 01-.431-1.05V3c0-.413.147-.765.441-1.059.294-.294.647-.44 1.059-.441h5.381c.2 0 .394.04.582.122.187.082.35.191.487.328l6.6 6.619c.15.15.26.318.328.506a1.579 1.579 0 010 1.116 1.375 1.375 0 01-.328.496zM4.875 6c.313 0 .578-.11.797-.328.22-.218.329-.484.328-.797 0-.313-.11-.579-.328-.796a1.09 1.09 0 00-.797-.329 1.072 1.072 0 00-.796.329 1.1 1.1 0 00-.329.796c-.002.311.108.577.329.797.22.22.486.33.796.328z" fill="#fff"/></svg>