<svg width="33" height="32" fill="none" xmlns="http://www.w3.org/2000/svg"><g clip-path="url(#clip0_21_1617)" fill="#fff"><path d="M17.476 30.855v-12a2.857 2.857 0 015.715 0v6.285h4.571a4.572 4.572 0 014.571 4.572v1.143"/><path fill-rule="evenodd" clip-rule="evenodd" d="M.404 10.112a10.11 10.11 0 1119.76 3.03 5.714 5.714 0 00-5.545 5.713v.5A10.11 10.11 0 01.404 10.112zm10.11-7.401c.79 0 1.429.64 1.429 1.428v.647a3.429 3.429 0 012.461 2.195 1.429 1.429 0 11-2.695.953.571.571 0 00-.53-.375H9.636a.35.35 0 00-.073.69l2.348.512a3.422 3.422 0 01.032 6.677v.649a1.429 1.429 0 11-2.858 0v-.647a3.429 3.429 0 01-2.46-2.194 1.43 1.43 0 012.696-.954.57.57 0 00.53.375h1.328a.565.565 0 00.119-1.113l-2.345-.514a3.207 3.207 0 01.132-6.293V4.14c0-.79.64-1.428 1.429-1.428zm6.962 16.144v13.143h14.857v-2.286a4.571 4.571 0 00-4.571-4.572H23.19v-6.285a2.857 2.857 0 00-5.714 0z"/></g><defs><clipPath id="clip0_21_1617"><path fill="#fff" transform="translate(.333)" d="M0 0h32v32H0z"/></clipPath></defs></svg>