<svg width="20" height="20" fill="none" xmlns="http://www.w3.org/2000/svg"><path d="M10 18.333a8.11 8.11 0 01-3.25-.656 8.43 8.43 0 01-2.646-1.781 8.398 8.398 0 01-1.78-2.646A8.133 8.133 0 011.666 10c0-1.152.218-2.236.656-3.25a8.435 8.435 0 011.781-2.646 8.403 8.403 0 012.646-1.78A8.118 8.118 0 0110 1.666c1.152 0 2.235.218 3.25.656a8.404 8.404 0 012.646 1.781 8.448 8.448 0 011.781 2.646 8.067 8.067 0 01.656 3.25 8.172 8.172 0 01-.656 3.25 8.36 8.36 0 01-1.781 2.646 8.467 8.467 0 01-2.646 1.781 8.073 8.073 0 01-3.25.656zm-2.417-2.125l1-2.291a3.896 3.896 0 01-1.51-.969 4.735 4.735 0 01-.99-1.532l-2.291.959a6.25 6.25 0 001.479 2.333 6.52 6.52 0 002.312 1.5zm-1.5-7.625a4.718 4.718 0 01.99-1.53c.424-.438.928-.76 1.51-.97l-.958-2.292a6.478 6.478 0 00-2.333 1.5 6.478 6.478 0 00-1.5 2.334l2.291.958zM10 12.5c.694 0 1.285-.243 1.77-.73A2.41 2.41 0 0012.5 10a2.41 2.41 0 00-.73-1.771 2.411 2.411 0 00-1.77-.73 2.41 2.41 0 00-1.77.73 2.41 2.41 0 00-.73 1.77c0 .695.243 1.286.73 1.772A2.41 2.41 0 0010 12.5zm2.417 3.708a6.492 6.492 0 002.302-1.489 6.465 6.465 0 001.49-2.303l-2.292-1a3.959 3.959 0 01-.959 1.511 4.65 4.65 0 01-1.5.99l.959 2.291zm1.5-7.666l2.291-.959a6.484 6.484 0 00-1.489-2.301 6.491 6.491 0 00-2.302-1.49l-.959 2.333c.57.208 1.063.524 1.48.948.416.424.743.913.979 1.468z" fill="#fff"/></svg>