<svg width="18" height="18" fill="none" xmlns="http://www.w3.org/2000/svg"><path d="M16.282 6.533c.938-.938.51-2.033 0-2.565l-2.25-2.25c-.944-.938-2.032-.51-2.565 0L10.194 3H8.25C6.825 3 6 3.75 5.58 4.613l-3.33 3.33v3l-.532.525c-.938.945-.51 2.032 0 2.565l2.25 2.25c.405.405.84.555 1.252.555.533 0 1.02-.263 1.313-.555l2.025-2.033h2.692c1.275 0 1.92-.795 2.152-1.575.848-.225 1.313-.87 1.5-1.5C16.066 10.875 16.5 9.773 16.5 9V6.75h-.442l.224-.217zM15 9c0 .338-.143.75-.75.75h-.75v.75c0 .338-.143.75-.75.75H12V12c0 .338-.143.75-.75.75H7.943l-2.46 2.46c-.233.218-.368.09-.45.008L2.79 12.983c-.217-.233-.09-.368-.007-.45l.967-.975v-3l1.5-1.5V8.25c0 .908.6 2.25 2.25 2.25s2.25-1.342 2.25-2.25H15V9zm.217-3.532L13.944 6.75H8.25v1.5c0 .338-.142.75-.75.75-.607 0-.75-.412-.75-.75V6c0-.345.128-1.5 1.5-1.5h2.557l1.71-1.71c.233-.217.368-.09.45-.007l2.243 2.235c.217.232.09.367.007.45z" fill="#fff"/></svg>