<svg width="33" height="32" fill="none" xmlns="http://www.w3.org/2000/svg"><path d="M16.667 29.333c-1.845 0-3.578-.35-5.2-1.05a13.485 13.485 0 01-4.234-2.85A13.424 13.424 0 014.384 21.2c-.7-1.623-1.05-3.357-1.05-5.2-.002-1.844.349-3.577 1.05-5.2a13.495 13.495 0 012.85-4.233 13.445 13.445 0 014.233-2.85c1.624-.7 3.357-1.05 5.2-1.05 1.842 0 3.576.35 5.2 1.05a13.42 13.42 0 014.233 2.85 13.512 13.512 0 012.85 4.233c.703 1.623 1.053 3.356 1.05 5.2-.003 1.843-.353 3.577-1.05 5.2a13.376 13.376 0 01-2.85 4.233 13.545 13.545 0 01-4.233 2.851c-1.62.701-3.354 1.051-5.2 1.05zM15.333 26.6V24c-.733 0-1.36-.26-1.882-.783a2.573 2.573 0 01-.784-1.884V20l-6.4-6.4c-.067.4-.128.8-.183 1.2-.055.4-.083.8-.084 1.2 0 2.689.884 5.044 2.65 7.067 1.768 2.022 3.995 3.2 6.683 3.533zm9.2-3.4c.445-.489.845-1.017 1.2-1.583.356-.566.65-1.155.883-1.766.233-.612.41-1.24.533-1.884A10.5 10.5 0 0027.333 16c0-2.178-.605-4.167-1.817-5.967a10.273 10.273 0 00-4.85-3.9v.534a2.57 2.57 0 01-.782 1.884A2.561 2.561 0 0118 9.333h-2.667V12c0 .378-.128.695-.384.95a1.285 1.285 0 01-.949.383h-2.667V16h8c.378 0 .695.128.951.384s.384.572.383.95v4H22c.578 0 1.1.172 1.567.517.466.345.789.794.966 1.349z" fill="#fff"/></svg>