<svg width="18" height="18" fill="none" xmlns="http://www.w3.org/2000/svg"><path d="M12.75 2.505A7.5 7.5 0 111.5 9l.004-.243A7.5 7.5 0 0112.75 2.505zM9 4.5a.75.75 0 00-.75.75 2.25 2.25 0 100 4.5v1.5a.765.765 0 01-.65-.299l-.05-.075a.75.75 0 00-1.3.748 2.25 2.25 0 001.88 1.125h.12a.75.75 0 00.662.746L9 13.5a.75.75 0 00.75-.75l.132-.004A2.25 2.25 0 009.75 8.25v-1.5a.768.768 0 01.65.299l.05.075a.75.75 0 001.3-.748A2.25 2.25 0 009.87 5.25h-.12A.75.75 0 009 4.5zm.75 5.25a.75.75 0 110 1.5v-1.5zm-1.5-3v1.5a.75.75 0 010-1.5z" fill="#fff"/></svg>