<svg width="19" height="18" fill="none" xmlns="http://www.w3.org/2000/svg"><path fill-rule="evenodd" clip-rule="evenodd" d="M3.136 2.636A8.972 8.972 0 019.5 0a8.972 8.972 0 016.364 2.636A8.972 8.972 0 0118.5 9a8.971 8.971 0 01-2.636 6.364A8.972 8.972 0 019.5 18a8.972 8.972 0 01-6.364-2.636A8.971 8.971 0 01.5 9a8.972 8.972 0 012.636-6.364zm6.421 3.645a433.48 433.48 0 00-5.37 2.361c-.435.177-.664.35-.685.52-.035.286.316.399.794.552.065.02.132.043.201.066.47.156 1.103.338 1.432.345.298.007.63-.119.998-.376 2.508-1.729 3.803-2.603 3.885-2.621.057-.014.136-.03.19.018.054.05.049.142.043.167-.035.151-1.412 1.459-2.125 2.135-.222.211-.38.36-.412.395-.072.077-.146.149-.217.219-.437.43-.764.752.018 1.278.376.253.677.463.977.671.328.228.655.456 1.078.739.108.072.211.147.311.22.382.277.725.527 1.148.487.246-.023.5-.26.63-.964.304-1.665.904-5.272 1.043-6.76a1.7 1.7 0 00-.016-.37.399.399 0 00-.13-.254.597.597 0 00-.358-.11c-.346.007-.877.196-3.435 1.282z" fill="#0098EA"/></svg>