<svg width="32" height="32" fill="none" xmlns="http://www.w3.org/2000/svg"><path d="M16 13.333a5.333 5.333 0 100-10.666 5.333 5.333 0 000 10.666zm-8.667 4a3.333 3.333 0 100-6.667 3.333 3.333 0 000 6.667zM28 14a3.333 3.333 0 11-6.667 0A3.333 3.333 0 0128 14zm-12 .667a6.667 6.667 0 016.667 6.666v8H9.333v-8A6.667 6.667 0 0116 14.667zm-9.333 6.666c0-.924.133-1.816.384-2.658l-.227.018a4.667 4.667 0 00-4.157 4.64v6h4v-8zm22.666 8v-6a4.666 4.666 0 00-4.384-4.658c.25.842.384 1.734.384 2.658v8h4z" fill="#fff"/></svg>