<svg width="18" height="18" fill="none" xmlns="http://www.w3.org/2000/svg"><g clip-path="url(#clip0_21_1151)"><path d="M4.5 17.25a2.17 2.17 0 01-1.594-.656A2.17 2.17 0 012.25 15c0-.625.219-1.156.656-1.594A2.17 2.17 0 014.5 12.75c.175 0 .338.019.487.056.15.038.294.088.432.15l1.069-1.331a3.255 3.255 0 01-.732-1.313 3.415 3.415 0 01-.094-1.462l-1.518-.506a2.435 2.435 0 01-.807.75 2.137 2.137 0 01-1.087.281 2.17 2.17 0 01-1.594-.656A2.17 2.17 0 010 7.125C0 6.5.219 5.969.656 5.531a2.17 2.17 0 011.594-.656 2.17 2.17 0 011.594.656c.437.438.656.969.656 1.594v.15l1.519.525a3.59 3.59 0 011.003-1.144c.42-.312.891-.512 1.415-.6V4.425a2.334 2.334 0 01-1.208-.797A2.13 2.13 0 016.75 2.25c0-.625.219-1.156.656-1.594A2.17 2.17 0 019 0a2.17 2.17 0 011.594.656c.437.438.656.969.656 1.594 0 .525-.162.985-.488 1.378-.325.394-.725.66-1.2.797v1.631a3.23 3.23 0 011.417.6c.419.313.753.694 1.002 1.144l1.519-.525v-.15c0-.625.219-1.156.656-1.594a2.17 2.17 0 011.594-.656 2.17 2.17 0 011.594.656c.437.438.656.969.656 1.594a2.17 2.17 0 01-.656 1.594 2.17 2.17 0 01-1.594.656 2.231 2.231 0 01-1.894-1.031l-1.518.506c.075.488.043.972-.094 1.454a3.412 3.412 0 01-.732 1.321l1.07 1.313c.137-.063.28-.11.43-.14a2.41 2.41 0 01.488-.048 2.17 2.17 0 011.594.656c.437.438.656.969.656 1.594a2.17 2.17 0 01-.656 1.594 2.17 2.17 0 01-1.594.656 2.17 2.17 0 01-1.594-.656A2.17 2.17 0 0111.25 15c0-.25.04-.49.122-.722.082-.23.191-.44.328-.628l-1.069-1.331a3.3 3.3 0 01-1.64.431 3.305 3.305 0 01-1.641-.431L6.3 13.65c.138.188.247.397.329.628.081.232.122.473.121.722a2.17 2.17 0 01-.656 1.594 2.17 2.17 0 01-1.594.656z" fill="#fff"/></g><defs><clipPath id="clip0_21_1151"><path fill="#fff" d="M0 0h18v18H0z"/></clipPath></defs></svg>