<svg xmlns="http://www.w3.org/2000/svg" width="15" height="18" fill="none"><path d="M2.1 9L7.5.6 12.9 9l-5.4 8.4L2.1 9z" fill="#89B8FF"/><path d="M7.5 17.4V9H3.3l4.2 8.4z" fill="#2E5FDC"/><path d="M7.5 17.4V9h4.2l-4.2 8.4z" fill="#1D2DC6"/><path d="M7.5 9V.6L3.3 9h4.2z" fill="#4576F3"/><path d="M7.5 9V.6L11.7 9H7.5z" fill="#3346F6"/><path d="M7.5 17.4L.3 9h3.6l3.6 8.4z" fill="#4486EB"/><path d="M.3 9L7.5.6 3.9 9H.3z" fill="#89B8FF"/><path d="M14.7 9l-7.2 8.4L11.1 9h3.6z" fill="#0F1D9D"/><path d="M7.5.6L14.7 9h-3.6L7.5.6z" fill="#213DD1"/></svg>