<svg width="20" height="20" fill="none" xmlns="http://www.w3.org/2000/svg"><g clip-path="url(#clip0_21_1164)"><path d="M16.667 11.667a1.25 1.25 0 01.12 2.494l-.12.006H6.35l1.2 1.2a1.25 1.25 0 01-1.674 1.853l-.095-.086-3.19-3.191c-.812-.812-.284-2.181.825-2.271l.117-.005h13.133zm-4.217-8.8a1.25 1.25 0 011.673-.087l.095.086 3.19 3.192c.812.811.284 2.18-.826 2.27l-.116.005H3.333a1.25 1.25 0 01-.12-2.494l.12-.006H13.65l-1.2-1.2a1.25 1.25 0 01.001-1.766z" fill="#fff"/></g><defs><clipPath id="clip0_21_1164"><path fill="#fff" d="M0 0h20v20H0z"/></clipPath></defs></svg>