<svg width="16" height="18" fill="none" xmlns="http://www.w3.org/2000/svg"><g clip-path="url(#clip0_21_41)" fill="#fff"><path d="M6.13 4.096c-.195-.028-.204-.037-.111-.046.176-.028.585.009.873.074.668.158 1.272.566 1.913 1.282l.167.195.242-.038c1.03-.167 2.09-.037 2.972.372.241.111.622.334.669.39.018.019.046.14.065.26.065.437.037.762-.103 1.013-.074.139-.074.176-.027.297.037.093.148.158.25.158.223 0 .455-.353.567-.846l.046-.195.084.093c.474.53.845 1.263.9 1.784l.02.139-.084-.12a1.568 1.568 0 00-.446-.475c-.316-.213-.65-.278-1.533-.325-.798-.046-1.253-.111-1.7-.26-.76-.25-1.15-.576-2.052-1.774-.4-.53-.65-.817-.9-1.059-.549-.529-1.097-.808-1.812-.919z"/><path d="M13.05 5.276c.018-.353.065-.586.167-.8a.638.638 0 01.083-.157c.01 0-.009.065-.037.14-.074.204-.083.491-.037.817.065.418.093.473.539.928.204.214.446.483.538.595l.158.204-.158-.148c-.195-.186-.64-.54-.743-.586-.065-.037-.074-.037-.12.01-.037.037-.047.093-.047.362-.01.418-.065.678-.204.947-.074.14-.084.112-.019-.046.047-.12.056-.177.056-.576 0-.808-.093-1.003-.66-1.328a6.937 6.937 0 00-.52-.27 2.058 2.058 0 01-.25-.12c.018-.019.566.139.78.232.325.13.38.14.418.13.028-.028.046-.102.056-.334zM6.51 6.66c-.39-.54-.64-1.375-.584-1.997l.018-.196.093.019c.167.028.455.14.595.223.371.223.538.53.696 1.291.047.223.112.483.14.567.046.139.222.464.371.668.102.149.037.223-.195.205-.353-.038-.827-.363-1.133-.78zm6.066 4.04c-1.84-.743-2.49-1.384-2.49-2.47 0-.159.01-.289.01-.289.01 0 .074.056.158.121.371.297.79.427 1.95.594.678.103 1.068.177 1.421.298 1.124.371 1.82 1.133 1.988 2.164.046.297.019.864-.056 1.16-.065.233-.25.66-.297.67-.01 0-.028-.047-.028-.121-.018-.39-.213-.762-.538-1.05-.39-.334-.892-.585-2.118-1.077zm-1.3.306a2.2 2.2 0 00-.093-.39l-.047-.14.084.103c.12.14.213.306.297.539.065.176.065.232.065.52 0 .278-.01.344-.065.501a1.68 1.68 0 01-.39.623c-.334.343-.77.529-1.393.613-.112.009-.427.037-.706.055-.697.037-1.161.112-1.579.26-.056.019-.111.038-.12.028-.02-.018.269-.185.5-.297.326-.158.66-.241 1.394-.371.362-.056.734-.13.827-.168.92-.287 1.374-1.003 1.226-1.876z"/><path d="M12.12 12.502c-.24-.53-.296-1.031-.166-1.505.018-.046.037-.093.055-.093.019 0 .075.028.13.065.112.074.344.204.939.53.752.408 1.179.724 1.476 1.086.26.316.418.678.492 1.124.047.25.02.854-.046 1.105-.204.79-.669 1.421-1.347 1.784a1.286 1.286 0 01-.195.092c-.009 0 .028-.092.084-.204a1.85 1.85 0 00.084-1.44c-.103-.315-.316-.696-.744-1.337-.51-.743-.631-.938-.761-1.207zm-6.919 2.842c.688-.576 1.533-.985 2.313-1.115.334-.056.892-.037 1.198.047.492.13.938.408 1.17.752.223.334.325.622.428 1.263.037.25.083.51.092.567.075.334.223.594.41.733.287.214.789.223 1.28.037.085-.027.159-.055.159-.046.018.019-.232.186-.4.27a1.32 1.32 0 01-.668.157c-.446 0-.827-.232-1.133-.696a5.214 5.214 0 01-.307-.613c-.325-.753-.492-.975-.873-1.226-.334-.214-.762-.26-1.087-.103-.427.205-.538.753-.241 1.087.12.14.343.251.53.279a.567.567 0 00.64-.567c0-.223-.083-.353-.306-.455-.298-.13-.623.019-.613.307 0 .12.055.195.176.25.074.038.074.038.019.028-.27-.055-.335-.39-.121-.603.26-.26.808-.149.994.213.074.149.083.446.018.632-.158.409-.603.622-1.059.501-.306-.083-.436-.167-.808-.548-.65-.668-.9-.798-1.83-.938l-.176-.028.195-.185z"/><path fill-rule="evenodd" clip-rule="evenodd" d="M.316.4C2.48 3.027 5.814 7.114 5.98 7.336c.14.186.084.363-.148.493-.13.074-.4.148-.53.148a.67.67 0 01-.445-.195c-.084-.083-.446-.613-1.264-1.885a120.485 120.485 0 00-1.16-1.793c-.038-.018-.038-.018 1.095 2.006.716 1.273.948 1.728.948 1.784 0 .12-.037.186-.186.353-.25.278-.362.594-.446 1.254-.093.733-.344 1.253-1.059 2.136-.418.52-.483.613-.585.826-.13.26-.167.41-.186.743-.018.353.019.576.121.91.093.298.195.493.446.874.214.334.344.585.344.678 0 .074.018.074.353 0 .798-.186 1.458-.502 1.82-.892.223-.241.279-.371.279-.706 0-.213-.01-.26-.065-.39-.093-.204-.27-.371-.65-.631-.502-.344-.716-.623-.771-.994-.047-.316.009-.53.287-1.115.288-.604.363-.854.41-1.467.027-.39.073-.548.185-.67.12-.13.223-.176.51-.213.474-.065.78-.185 1.022-.418a.873.873 0 00.316-.678l.01-.213-.121-.13C6.074 6.65.028 0 0 0c-.01 0 .14.176.316.4zm2.851 13.207a.383.383 0 00-.12-.511c-.159-.102-.4-.056-.4.084 0 .037.019.074.074.092.084.047.093.093.028.195-.065.103-.065.195.019.26.13.103.306.047.4-.12zm3.762-4.886c-.223.065-.437.307-.502.548-.037.149-.018.418.047.502.102.13.195.167.455.167.51 0 .947-.223.994-.492.046-.223-.149-.53-.418-.669a.944.944 0 00-.576-.056zm.594.465c.075-.112.047-.232-.093-.316-.25-.158-.631-.028-.631.214 0 .12.195.25.38.25.121 0 .289-.074.344-.148z"/></g><defs><clipPath id="clip0_21_41"><path fill="#fff" d="M0 0h15.3v18H0z"/></clipPath></defs></svg>