<svg width="16" height="16" fill="none" xmlns="http://www.w3.org/2000/svg"><g clip-path="url(#clip0_21_1135)"><path fill-rule="evenodd" clip-rule="evenodd" d="M5.77.315a8.012 8.012 0 00-5.738 6.97H3.69A18.05 18.05 0 015.77.315h.001zm-2.08 8.4H.031a8.011 8.011 0 005.737 6.97 18.057 18.057 0 01-2.08-6.97zm3.912 7.276a16.572 16.572 0 01-2.48-7.277h5.755a16.572 16.572 0 01-2.48 7.277c-.265.013-.53.013-.795 0zm2.629-.306a8.013 8.013 0 005.737-6.97h-3.657a18.058 18.058 0 01-2.08 6.97zm2.08-8.4h3.657a8.011 8.011 0 00-5.737-6.97 18.058 18.058 0 012.08 6.97zM7.602.01a8 8 0 01.796 0 16.571 16.571 0 012.479 7.277H5.124A16.541 16.541 0 017.602.009z" fill="#fff"/></g><defs><clipPath id="clip0_21_1135"><path fill="#fff" d="M0 0h16v16H0z"/></clipPath></defs></svg>