<svg width="96" height="96" viewBox="0 0 96 96" fill="none" xmlns="http://www.w3.org/2000/svg">
<g clip-path="url(#clip0_44_21760)">
<mask id="mask0_44_21760" style="mask-type:luminance" maskUnits="userSpaceOnUse" x="0" y="0" width="96" height="96">
<path d="M96 0H0V96H96V0Z" fill="white"/>
</mask>
<g mask="url(#mask0_44_21760)">
<mask id="mask1_44_21760" style="mask-type:luminance" maskUnits="userSpaceOnUse" x="0" y="0" width="96" height="96">
<path d="M0 0H96V96H0V0Z" fill="white"/>
</mask>
<g mask="url(#mask1_44_21760)">
<mask id="mask2_44_21760" style="mask-type:luminance" maskUnits="userSpaceOnUse" x="0" y="0" width="96" height="96">
<path d="M96 0H0V96H96V0Z" fill="white"/>
</mask>
<g mask="url(#mask2_44_21760)">
<mask id="mask3_44_21760" style="mask-type:luminance" maskUnits="userSpaceOnUse" x="0" y="0" width="96" height="94">
<path d="M96 0H0V93.12H96V0Z" fill="white"/>
</mask>
<g mask="url(#mask3_44_21760)">
<path d="M85.7978 54.4961C85.8774 54.6514 85.9595 54.8016 86.0443 54.9466C88.0101 58.3096 87.4431 64.1244 85.3545 67.3103" stroke="#009245" stroke-width="5.78056"/>
</g>
<mask id="mask4_44_21760" style="mask-type:luminance" maskUnits="userSpaceOnUse" x="-72" y="0" width="97" height="94">
<path d="M24.75 0H-71.25V93.12H24.75V0Z" fill="white"/>
</mask>
<g mask="url(#mask4_44_21760)">
<path d="M11.3164 75.3516C11.5625 77.6885 12.345 79.8366 13.2496 80.6056C14.4386 81.6164 15.2754 83.2229 15.2842 87.6281" stroke="#009245" stroke-width="5.6286"/>
</g>
<mask id="mask5_44_21760" style="mask-type:luminance" maskUnits="userSpaceOnUse" x="-72" y="0" width="97" height="94">
<path d="M24.75 0H-71.25V93.12H24.75V0Z" fill="white"/>
</mask>
<g mask="url(#mask5_44_21760)">
<path d="M15.372 9.20605C15.528 10.8931 15.3623 12.8557 14.7253 14.8716C14.034 17.0594 13.7079 20.1213 13.8906 22.8205" stroke="#009245" stroke-width="5.44704"/>
</g>
<mask id="mask6_44_21760" style="mask-type:luminance" maskUnits="userSpaceOnUse" x="-51" y="0" width="97" height="96">
<path d="M45.375 0H-50.625V96H45.375V0Z" fill="white"/>
</mask>
<g mask="url(#mask6_44_21760)">
<path d="M37.5938 32.9473C37.525 35.9302 36.5267 39.1933 34.8506 41.2792C33.7915 42.5973 33.2061 44.475 33.0484 46.52" stroke="#009245" stroke-width="7.58067"/>
</g>
</g>
<path d="M55.2988 61.4592C53.6352 61.4592 51.9222 61.4277 50.1983 61.6059C35.8655 63.0879 28.0141 65.5863 22.4289 72.2223C18.7501 76.5934 16.3301 83.1064 15.9911 89.2044C15.5665 96.8433 88.0352 96.6559 88.0399 89.4282C88.0466 79.2785 85.22 76.6965 80.5027 71.2271C73.4064 62.9995 61.8539 61.4592 55.2988 61.4592Z" fill="#FFD527"/>
<path d="M55.2988 61.4592C53.6352 61.4592 51.9222 61.4277 50.1983 61.6059C35.8655 63.0879 28.0141 65.5863 22.4289 72.2223C18.7501 76.5934 16.3301 83.1064 15.9911 89.2044C15.5665 96.8433 88.0352 96.6559 88.0399 89.4282C88.0466 79.2785 85.22 76.6965 80.5027 71.2271C73.4064 62.9995 61.8539 61.4592 55.2988 61.4592Z" stroke="#FFD527" stroke-width="1.96875" stroke-linecap="round" stroke-linejoin="round"/>
<path d="M88.0339 88.6122C87.8904 79.1352 85.0909 76.5469 80.5025 71.2271C73.4061 62.9995 61.8537 61.4592 55.2986 61.4592C53.635 61.4592 51.922 61.4277 50.1981 61.6059C35.8652 63.0879 28.0139 65.5863 22.4287 72.2223C18.8686 76.4522 16.4876 82.688 16.0303 88.6124" stroke="#F98F16" stroke-width="1.96875" stroke-linecap="round" stroke-linejoin="round"/>
<path d="M21.0383 53.9509C14.1164 55.1554 7.77762 71.4432 14.8133 65.1379C10.2272 68.7855 13.6124 73.6437 16.0957 69.4717C14.1904 72.4602 17.2436 75.7163 18.7707 73.198C18.9984 75.3559 25.4747 77.6501 30.3334 70.0215" stroke="#FA9016" stroke-width="3.42395" stroke-linecap="round" stroke-linejoin="round"/>
<path d="M21.0383 53.9509C14.1164 55.1554 7.77762 71.4432 14.8133 65.1379C10.2272 68.7855 13.6124 73.6437 16.0957 69.4717C14.1904 72.4602 17.2436 75.7163 18.7707 73.198C18.9984 75.3559 25.4747 77.6501 30.3334 70.0215" fill="#FFD527"/>
<path d="M70.8677 48.5283C77.8967 48.6076 87.8201 63.6729 79.509 58.5756C84.8203 61.4417 82.6334 66.7813 79.2531 63.0604C81.7979 65.7055 79.5671 69.4102 77.4992 67.1686C77.7725 69.3357 71.9817 72.6396 65.4903 65.8866" stroke="#FA9016" stroke-width="3.42756" stroke-linecap="round" stroke-linejoin="round"/>
<path d="M70.8677 48.5283C77.8967 48.6076 87.8201 63.6729 79.509 58.5756C84.8203 61.4417 82.6334 66.7813 79.2531 63.0604C81.7979 65.7055 79.5671 69.4102 77.4992 67.1686C77.7725 69.3357 71.9817 72.6396 65.4903 65.8866" fill="#FFD527"/>
<path d="M84.0176 77.7285C84.6291 81.0545 85.0136 83.6708 85.1406 86.1103" stroke="#FBED20" stroke-width="1.96875" stroke-linecap="round" stroke-linejoin="round"/>
<path d="M21.6125 85.1461C15.3304 89.6789 9.91086 89.4298 8.67953 87.9671C6.39128 85.2491 14.9764 74.2779 23.2054 71.1621" fill="#FFD427"/>
<path d="M21.6125 85.1461C15.3304 89.6789 9.91086 89.4298 8.67953 87.9671C6.39128 85.2491 14.9764 74.2779 23.2054 71.1621" stroke="#F98F16" stroke-width="1.96875" stroke-miterlimit="10" stroke-linecap="round"/>
<path d="M11.447 84.9465C12.6768 82.4023 14.9353 79.5948 17.2124 77.7152" stroke="white" stroke-width="1.96875" stroke-linecap="round" stroke-linejoin="round"/>
<path d="M81.4063 78.4288C87.7036 81.5195 92.6361 80.5695 93.9052 78.2901C96.2024 74.1641 76.3844 63.6767 74.6406 63.6035" fill="#FFD427"/>
<path d="M81.4063 78.4288C87.7036 81.5195 92.6361 80.5695 93.9052 78.2901C96.2024 74.1641 76.3844 63.6767 74.6406 63.6035" stroke="#F98F16" stroke-width="1.96875" stroke-miterlimit="10" stroke-linecap="round"/>
<path d="M90.6507 75.4638C89.2835 73.8852 86.6912 72.0728 81.8838 69.6221" stroke="#FBED20" stroke-width="1.96875" stroke-linecap="round" stroke-linejoin="round"/>
<path d="M40.2287 3.24569C28.4056 4.56677 19.2263 8.62796 19.7258 12.3166C20.2254 16.0051 23.225 29.2335 23.225 29.2335L62.3973 24.4816C62.3973 24.4816 63.0402 11.2211 62.5406 7.53255C62.041 3.84395 52.0517 1.92461 40.2287 3.24569Z" fill="#204564"/>
<path d="M38.4419 3.62478C34.8402 4.02722 31.4839 4.684 28.5718 5.50704C29.9965 15.0023 32.3316 27.2938 32.3316 27.2938L40.5527 25.8674C40.5527 25.8674 39.0916 9.76519 38.4419 3.62478Z" fill="#1180C5"/>
<path d="M22.8093 7.55117C24.0877 7.34264 24.8369 7.23256 26.3057 7.01102C28.3162 18.3034 29.8269 27.7273 29.8269 27.7273L27.4216 28.2141C27.4216 28.2141 24.2288 13.583 22.8093 7.55117Z" fill="#1180C5"/>
<path d="M49.8945 17.5209L46.5242 15.6928L45.8599 9.59859L48.7705 7.20931C49.3199 6.75838 50.1673 7.10645 50.2445 7.8149L51.2093 16.6661C51.2865 17.3745 50.5307 17.8659 49.8945 17.5209Z" fill="white"/>
<path d="M39.2926 10.2922L44.5487 9.82257L45.19 15.7064L39.9339 16.176C38.6494 16.2908 37.4959 15.3544 37.3575 14.0846L37.2174 12.7992C37.079 11.5294 38.0081 10.407 39.2926 10.2922Z" fill="white"/>
<path d="M43.6318 20.2665L42.9531 20.3272C42.6502 20.3542 42.3615 20.1825 42.2415 19.9041L39.9053 14.4814L43.6605 14.1459L44.2467 19.5236C44.2877 19.8998 44.0123 20.2325 43.6318 20.2665Z" fill="white"/>
<path d="M62.3973 24.4816C62.3973 24.4816 63.0402 11.2211 62.5406 7.53255C62.041 3.84395 52.0517 1.92461 40.2287 3.24569C28.4056 4.56677 19.2263 8.62796 19.7258 12.3166C20.2254 16.0051 23.225 29.2335 23.225 29.2335" stroke="#00112C" stroke-width="1.76378" stroke-linecap="round" stroke-linejoin="round"/>
<path d="M42.8562 22.8009C61.0578 20.7671 76.4364 23.7219 77.2055 29.4005C77.9745 35.0791 63.8429 41.3313 45.6412 43.3652C27.4396 45.399 12.061 42.4441 11.2919 36.7655C10.5229 31.0869 24.6545 24.8347 42.8562 22.8009Z" fill="#143652"/>
<path d="M42.8562 22.8009C61.0578 20.7671 76.4364 23.7219 77.2055 29.4005C77.9745 35.0791 63.8429 41.3313 45.6412 43.3652C27.4396 45.399 12.061 42.4441 11.2919 36.7655C10.5229 31.0869 24.6545 24.8347 42.8562 22.8009Z" stroke="#00112B" stroke-width="1.93953" stroke-linecap="round" stroke-linejoin="round"/>
<path d="M26.5845 79.9286C19.7998 74.4495 15.5257 66.4052 15.5561 57.4616C15.6119 41.0764 30.0944 27.8779 47.9036 27.9818C65.7127 28.0856 80.1048 41.4527 80.0489 57.8378C80.0314 62.9582 78.6053 67.7674 76.1088 71.9566" fill="#FFD527"/>
<path d="M26.5845 79.9286C19.7998 74.4495 15.5257 66.4052 15.5561 57.4616C15.6119 41.0764 30.0944 27.8779 47.9036 27.9818C65.7127 28.0856 80.1048 41.4527 80.0489 57.8378C80.0314 62.9582 78.6053 67.7674 76.1088 71.9566" stroke="#F98F16" stroke-width="1.93927" stroke-linecap="round" stroke-linejoin="round"/>
<path d="M67.418 38.3105C74.4004 43.5328 81.4758 56.1435 73.6046 68.4514" stroke="#FBED20" stroke-width="1.93927" stroke-linecap="round" stroke-linejoin="round"/>
<path d="M21.0553 62.146C20.6991 61.2394 20.4145 60.2908 20.207 59.3008" stroke="white" stroke-width="1.93927" stroke-linecap="round" stroke-linejoin="round"/>
<path d="M20.4137 52.2027C21.7247 45.6875 27.9897 34.9316 42.8165 32.7251" stroke="white" stroke-width="1.93927" stroke-linecap="round" stroke-linejoin="round"/>
<path d="M61.3925 39.2477C64.485 38.1533 68.398 41.3348 70.1323 46.3538C71.8666 51.3729 70.7655 56.329 67.673 57.4235C64.5805 58.5179 60.6675 55.3364 58.9332 50.3174C57.1989 45.2983 58.3 40.3422 61.3925 39.2477Z" fill="black"/>
<path d="M62.6041 51.5963C63.4531 53.6096 65.815 54.2367 67.5415 53.172C69.2679 52.1073 68.5264 49.0977 65.796 48.5524C64.8516 48.3637 62.7957 48.0212 61.9847 47.105C61.1012 46.107 61.2021 44.687 62.4398 43.7468C63.6774 42.8066 65.8798 43.3647 66.7416 45.4984" stroke="#30E855" stroke-width="1.26415" stroke-linecap="round" stroke-linejoin="round"/>
<path d="M62.5898 42.0771L67.0409 54.7133" stroke="#30E855" stroke-width="1.26415" stroke-linecap="round" stroke-linejoin="round"/>
<path d="M60.6686 40.9972C61.1447 41.1181 61.418 41.7989 61.279 42.5177C61.1401 43.2366 60.6415 43.7213 60.1654 43.6004C59.6894 43.4795 59.4161 42.7988 59.5551 42.0799C59.694 41.3611 60.1926 40.8763 60.6686 40.9972Z" fill="white"/>
<path d="M39.5245 40.5153C42.8345 41.4179 44.4639 46.3164 43.1639 51.4563C41.8638 56.5962 38.1265 60.0312 34.8166 59.1286C31.5066 58.226 29.8772 53.3275 31.1772 48.1876C32.4773 43.0477 36.2146 39.6127 39.5245 40.5153Z" fill="black"/>
<path d="M37.7505 41.6168C38.1213 42.048 37.9726 42.8187 37.4182 43.3382C36.8639 43.8576 36.1139 43.9291 35.7431 43.4979C35.3723 43.0667 35.5211 42.2959 36.0754 41.7765C36.6297 41.257 37.3797 41.1855 37.7505 41.6168Z" fill="white"/>
<path d="M33.7042 51.3454C33.6238 53.5318 35.581 55.1413 37.6795 54.9478C39.778 54.7544 40.3967 51.7196 38.0554 50.0207C37.2456 49.433 35.4528 48.215 35.088 47.032C34.6907 45.7435 35.4086 44.5111 36.9905 44.2133C38.5724 43.9155 40.4092 45.3923 40.2881 47.6926" stroke="#30E855" stroke-width="1.29145" stroke-linecap="round" stroke-linejoin="round"/>
<path d="M37.8643 42.7784L36.5306 56.1127" stroke="#30E855" stroke-width="1.29145" stroke-linecap="round" stroke-linejoin="round"/>
<path d="M64.4722 63.9016C65.3056 70.8753 63.6028 88.454 53.8722 88.5112C43.9048 88.5699 40.2447 72.389 38.9708 65.2787C38.3709 64.4478 38.1691 63.5973 38.076 63.0264C37.7486 61.0205 39.8044 60.4532 43.3925 60.0321C49.6514 59.2976 49.2826 55.0583 53.8715 54.4377C58.9937 53.7449 59.9552 59.3063 64.4017 59.1069C70.8013 58.8192 69.0394 63.2276 64.4722 63.9016Z" fill="#FF5D1F"/>
<path d="M64.4722 63.9016C65.3056 70.8753 63.6028 88.454 53.8722 88.5112C43.9048 88.5699 40.2447 72.389 38.9708 65.2787C38.3709 64.4478 38.1691 63.5973 38.076 63.0264C37.7486 61.0205 39.8044 60.4532 43.3925 60.0321C49.6514 59.2976 49.2826 55.0583 53.8715 54.4377C58.9937 53.7449 59.9552 59.3063 64.4017 59.1069C70.8013 58.8192 69.0394 63.2276 64.4722 63.9016Z" stroke="#CF3502" stroke-width="1.55141" stroke-linecap="round" stroke-linejoin="round"/>
<path d="M61.2377 64.7023C54.4479 65.2857 48.6887 65.4792 43.804 64.7904C44.6888 72.661 47.0949 83.1956 54.5375 82.9051C61.54 82.6301 61.4414 67.6222 61.2377 64.7023Z" fill="#7D0909"/>
<path d="M55.4829 69.427C55.4752 67.9232 49.1967 67.8464 49.5477 69.3858C49.8611 70.8613 51.4739 75.0733 53.5129 77.4216C55.0449 75.596 55.5097 70.6614 55.4829 69.427Z" fill="#CF3502"/>
<path d="M64.2637 63.9618C55.3236 65.4784 47.0599 65.1381 41.6498 64.0638" stroke="#7D0909" stroke-width="1.55141" stroke-linecap="round" stroke-linejoin="round"/>
<path d="M43.8834 61.8685C47.2404 61.562 49.8712 60.3651 52.8694 56.7403" stroke="#FFB484" stroke-width="1.55141" stroke-linecap="round" stroke-linejoin="round"/>
<path d="M43.9111 51.4636C45.9548 51.0473 48.0293 52.4533 48.5407 54.6011C49.0521 56.749 47.808 58.8309 45.7643 59.2471C43.7205 59.6634 41.646 58.2574 41.1346 56.1095C40.6232 53.9617 41.8673 51.8798 43.9111 51.4636Z" stroke="#D7D0D0" stroke-width="1.12553"/>
<path d="M62.4517 50.8C64.5129 50.376 66.6012 51.7593 67.1119 53.8871C67.6225 56.0149 66.3636 58.0868 64.3023 58.5108C62.241 58.9349 60.1528 57.5515 59.6421 55.4237C59.1314 53.296 60.3904 51.2241 62.4517 50.8Z" stroke="#D7D0D0" stroke-width="1.12553"/>
<path d="M44.5103 51.4355C46.5834 51.0636 48.6403 52.4971 49.1004 54.6346C49.5606 56.7721 48.251 58.8096 46.1778 59.1815C44.1047 59.5534 42.0479 58.1199 41.5877 55.9824C41.1275 53.8449 42.4371 51.8074 44.5103 51.4355Z" stroke="white" stroke-width="1.12557"/>
<path d="M63.0493 50.7304C65.1225 50.3585 67.1793 51.792 67.6395 53.9295C68.0997 56.067 66.79 58.1045 64.7169 58.4764C62.6438 58.8484 60.5869 57.4148 60.1268 55.2773C59.6666 53.1398 60.9762 51.1023 63.0493 50.7304Z" stroke="white" stroke-width="1.12557"/>
<mask id="mask7_44_21760" style="mask-type:luminance" maskUnits="userSpaceOnUse" x="0" y="0" width="96" height="96">
<path d="M0 0H96V96H0V0Z" fill="white"/>
</mask>
<g mask="url(#mask7_44_21760)">
<mask id="mask8_44_21760" style="mask-type:luminance" maskUnits="userSpaceOnUse" x="0" y="0" width="96" height="100">
<path d="M0 0H96V99.84H0V0Z" fill="white"/>
</mask>
<g mask="url(#mask8_44_21760)">
<path d="M11.186 56.1113C10.8845 57.1567 10.5088 58.1112 10.0633 58.9127C7.78197 63.0173 9.74566 69.797 11.7362 73.4098C11.87 73.6526 11.991 73.9084 12.0999 74.175" stroke="#19D672" stroke-width="11.4728"/>
<path d="M10.5562 57.9004C10.4029 58.2592 10.2384 58.5979 10.0633 58.913C7.965 62.6882 9.45787 68.7266 11.2597 72.4823" stroke="#009245" stroke-width="9.17823"/>
<path d="M9.08528 62.3672C8.92853 64.1856 9.18334 66.1621 9.65509 68.0269" stroke="#19D673" stroke-width="7.64853" stroke-linecap="round" stroke-linejoin="round"/>
<path d="M9.17609 63.0381C11.1381 63.0381 12.7311 63.9034 12.7311 64.9693C12.7311 66.0351 11.1381 66.9005 9.17609 66.9005C7.21409 66.9005 5.62109 66.0351 5.62109 64.9693C5.62109 63.9034 7.21409 63.0381 9.17609 63.0381Z" fill="#47FF87"/>
</g>
<mask id="mask9_44_21760" style="mask-type:luminance" maskUnits="userSpaceOnUse" x="0" y="0" width="96" height="100">
<path d="M0 0H96V99.84H0V0Z" fill="white"/>
</mask>
<g mask="url(#mask9_44_21760)">
<path d="M11.2012 2.10455C11.2082 2.70866 11.1516 3.24881 11.0546 3.73358" stroke="#19D672" stroke-width="0.98666"/>
<path d="M11.202 2.2666C11.1984 2.74162 11.1555 3.17628 11.085 3.57447" stroke="#009245" stroke-width="0.789328"/>
<path d="M11.1882 2.67578C11.1785 2.84582 11.1638 3.01021 11.1445 3.16932" stroke="#19D673" stroke-width="0.657773" stroke-linecap="round" stroke-linejoin="round"/>
<path d="M11.2012 1.93848C11.37 1.93848 11.507 2.0129 11.507 2.10456C11.507 2.19622 11.37 2.27064 11.2012 2.27064C11.0325 2.27064 10.8955 2.19622 10.8955 2.10456C10.8955 2.0129 11.0325 1.93848 11.2012 1.93848Z" fill="#47FF87"/>
</g>
<mask id="mask10_44_21760" style="mask-type:luminance" maskUnits="userSpaceOnUse" x="71" y="0" width="97" height="100">
<path d="M71.25 0H167.25V99.84H71.25V0Z" fill="white"/>
</mask>
<g mask="url(#mask10_44_21760)">
<path d="M84.1801 78.9658C84.2131 81.9158 83.5797 84.8981 82.8331 86.4218C82.1448 87.8264 80.9573 89.2281 80.9493 93.9512" stroke="#19D672" stroke-width="9.35346"/>
<path d="M84.1384 80.5283C83.9858 82.9268 83.448 85.1685 82.8336 86.4224C82.2272 87.6597 81.2336 88.8946 81 92.3993" stroke="#009245" stroke-width="7.48276"/>
<path d="M83.5507 84.3535C83.3411 85.179 83.0938 85.8899 82.8328 86.4227C82.5243 87.0521 82.1156 87.681 81.7578 88.6082" stroke="#19D673" stroke-width="6.23564" stroke-linecap="round" stroke-linejoin="round"/>
<path d="M82.7977 84.9229C84.3973 84.9229 85.696 85.6284 85.696 86.4973C85.696 87.3662 84.3973 88.0717 82.7977 88.0717C81.1981 88.0717 79.8994 87.3662 79.8994 86.4973C79.8994 85.6284 81.1981 84.9229 82.7977 84.9229Z" fill="#47FF87"/>
</g>
<mask id="mask11_44_21760" style="mask-type:luminance" maskUnits="userSpaceOnUse" x="71" y="0" width="97" height="100">
<path d="M71.25 0H167.25V99.84H71.25V0Z" fill="white"/>
</mask>
<g mask="url(#mask11_44_21760)">
<path d="M79.9355 11.8604C80.0195 13.1534 80.3398 14.5367 80.9574 15.9442C82.5288 19.5248 82.8332 25.2888 81.1095 28.5202C80.846 29.0139 80.6372 29.6053 80.4795 30.2668" stroke="#19D672" stroke-width="11.4728"/>
<path d="M80.2178 13.7412C80.3869 14.4621 80.6305 15.1998 80.9571 15.9441C82.5235 19.5134 82.831 25.2521 81.1255 28.4891" stroke="#009245" stroke-width="9.17823"/>
<path d="M81.7227 18.2354C82.164 20.018 82.3566 22.024 82.2439 23.9056" stroke="#19D673" stroke-width="7.64853" stroke-linecap="round" stroke-linejoin="round"/>
<path d="M82.2259 19.5334C84.1879 19.5334 85.7809 20.3987 85.7809 21.4646C85.7809 22.5304 84.1879 23.3958 82.2259 23.3958C80.2639 23.3958 78.6709 22.5304 78.6709 21.4646C78.6709 20.3987 80.2639 19.5334 82.2259 19.5334Z" fill="#47FF87"/>
</g>
<mask id="mask12_44_21760" style="mask-type:luminance" maskUnits="userSpaceOnUse" x="50" y="0" width="97" height="100">
<path d="M50.625 0H146.625V99.84H50.625V0Z" fill="white"/>
</mask>
<g mask="url(#mask12_44_21760)">
<path d="M59.4766 33.9443C59.4797 37.131 60.1846 40.6855 61.3966 42.9297C62.6016 45.1613 62.9294 48.935 62.5184 52.4912" stroke="#19D672" stroke-width="11.4728"/>
<path d="M59.5586 35.8477C59.7763 38.4737 60.4228 41.1249 61.3972 42.9293C62.3889 44.7658 62.7866 47.6467 62.6672 50.5912" stroke="#009245" stroke-width="9.17823"/>
<path d="M60.423 40.5184C60.6952 41.4146 61.0218 42.235 61.397 42.9297C61.8296 43.7308 62.1491 44.7306 62.3621 45.8477" stroke="#19D673" stroke-width="7.64853" stroke-linecap="round" stroke-linejoin="round"/>
<path d="M61.5374 41.2744C63.4994 41.2744 65.0924 42.1398 65.0924 43.2056C65.0924 44.2714 63.4994 45.1368 61.5374 45.1368C59.5754 45.1368 57.9824 44.2714 57.9824 43.2056C57.9824 42.1398 59.5754 41.2744 61.5374 41.2744Z" fill="#47FF87"/>
</g>
</g>
</g>
</g>
</g>
<defs>
<clipPath id="clip0_44_21760">
<rect width="96" height="96" fill="white"/>
</clipPath>
</defs>
</svg>
