<?xml version="1.0" encoding="utf-8"?><svg viewBox="0 0 426 426" xmlns="http://www.w3.org/2000/svg" xmlns:xlink="http://www.w3.org/1999/xlink"><style>:root>svg{display:none}:root>svg:target{display:block}</style><svg viewBox="0 0 18 18" id="buy" xmlns="http://www.w3.org/2000/svg"><path d="M2.25 9a6.75 6.75 0 1013.5 0 6.75 6.75 0 00-13.5 0z"/><path d="M11.1 6.75A1.5 1.5 0 009.75 6h-1.5a1.5 1.5 0 000 3h1.5a1.5 1.5 0 010 3h-1.5a1.5 1.5 0 01-1.35-.75m2.1-6v7.5"/></svg><svg viewBox="0 0 18 18" id="chart" xmlns="http://www.w3.org/2000/svg"><path d="M12 8.835l3.18-5.498 1.297.75-3.922 6.788-4.882-2.813-3.578 6.188H16.5v1.5h-15V2.25H3v10.905L7.125 6 12 8.835z"/></svg><svg viewBox="0 0 15 18" id="dex" xmlns="http://www.w3.org/2000/svg"><g clip-path="url(#cclip0_21_55)" fill-rule="evenodd" clip-rule="evenodd"><path d="M8.903 6.412a10.66 10.66 0 001.844-1.232c.14.307.155.575.083.791a.871.871 0 01-.273.39 1.212 1.212 0 01-.497.243 1.557 1.557 0 01-1.157-.192zm.09 2.813l.689.421c-1.406.834-1.788 2.383-2.242 3.892-.454-1.509-.836-3.058-2.242-3.892l.689-.42a.341.341 0 00.162-.139.373.373 0 00.055-.213c-.063-1.412.298-2.037.784-2.43a.88.88 0 01.552-.21.88.88 0 01.552.21c.486.393.847 1.018.784 2.43a.373.373 0 00.055.213c.039.063.096.111.162.138zM7.44 0c.796.023 1.593.186 2.286.504a5.7 5.7 0 011.331.86c.183.158.334.31.5.485.447.017 1.101-.51 1.405-1.002-.522 1.813-2.907 3.955-4.558 4.775l-.001-.001c-.297-.24-.63-.36-.963-.36-.333 0-.666.12-.963.36h-.001C4.825 4.803 2.44 2.662 1.918.848c.304.492.958 1.019 1.405 1.002.166-.175.317-.327.5-.484a5.7 5.7 0 011.331-.86C5.847.185 6.644.022 7.44 0zM5.977 6.412A10.659 10.659 0 014.133 5.18c-.14.307-.155.575-.083.791a.872.872 0 00.273.39c.137.115.308.198.497.243.358.085.777.035 1.157-.192z"/><path d="M11.473 4.501c.365-.39.686-.821.944-1.206l.132.262c.422.895.642 1.786.642 2.79l-.001 1.591.008.825c.03 2.026.444 4.076 1.382 5.952l-1.962-1.675-1.389 2.385-1.458-1.454-2.331 4.005-2.33-4.005-1.46 1.454-1.388-2.385L.3 14.715c.938-1.876 1.352-3.926 1.383-5.952l.007-.825V6.346c0-1.003.219-1.894.642-2.79l.13-.26c.26.384.58.815.945 1.205l-.114.25C3.073 5.239 3 5.783 3.171 6.3c.111.334.314.62.576.838.253.212.554.354.869.43.204.048.413.068.62.061a5.63 5.63 0 00-.07.9L3.315 9.658l1.428.848c.114.068.223.145.325.232 1.178 1.12 1.886 4.431 2.372 6.049.487-1.618 1.195-4.93 2.372-6.05.102-.086.211-.163.325-.231l1.429-.848-1.851-1.132a5.63 5.63 0 00-.071-.899c.207.007.416-.013.62-.062.315-.075.616-.217.87-.43.261-.218.464-.503.575-.837.172-.517.099-1.06-.122-1.547l-.114-.251z"/></g><defs><clipPath id="cclip0_21_55"><path transform="translate(.3)" d="M0 0h14.28v18H0z"/></clipPath></defs></svg><svg viewBox="0 0 17 18" id="dextools" xmlns="http://www.w3.org/2000/svg"><g clip-path="url(#dclip0_21_61)"><path fill-rule="evenodd" clip-rule="evenodd" d="M6.395 1.027c-1.071.558-1.947 1.03-1.947 1.05 0 .05 2.57 1.35 2.662 1.348.041-.002.342-.14.669-.308l.593-.306.648.334.649.333L10.73 3c1.6-.719 1.766-.798 1.74-.824-.035-.035-.609-.343-2.165-1.163C9.553.618 8.823.23 8.682.151a1.462 1.462 0 00-.297-.14c-.023 0-.919.458-1.99 1.016zM1.697 3.46l-1.115.576v2.528c0 1.39.015 2.527.033 2.527.018 0 .566-.238 1.219-.528l1.186-.529V5.37l.58.316 1.341.728.762.412.338-.153c.213-.096.425-.193.636-.291.164-.077.565-.257.892-.402.328-.145.63-.291.673-.324.057-.044-.638-.429-2.572-1.422-1.457-.748-2.697-1.358-2.754-1.355-.057.003-.606.264-1.219.581zm10.974.162c-.76.343-1.381.637-1.382.654 0 .016.413.262.92.546.506.284.92.532.92.55 0 .02-.448.236-.995.483l-3.078 1.39-3.835 1.734-1.933.874c-1.97.892-2.513 1.14-2.587 1.182-.075.043-.092.291-.105 1.538L.58 14.061l.997.508.997.508 1.383-.624c.76-.343 1.382-.641 1.382-.663 0-.022-.14-.114-.312-.204-.171-.09-.526-.29-.788-.443a6.194 6.194 0 00-.58-.314c-.057-.018-.103-.05-.102-.072.001-.021.61-.31 1.353-.643A1135.45 1135.45 0 009.83 9.9l3.18-1.437c.933-.42 2.017-.912 2.41-1.092l.713-.327.016-1.505.015-1.505-1.01-.519c-.557-.285-1.033-.518-1.057-.517-.025 0-.667.282-1.426.625zm3.19 5.428c-.148.073-.443.21-.653.303-.211.094-.611.274-.89.401l-.505.23-.011 1.322c-.006.727-.033 1.318-.06 1.314-.06-.009-1.007-.495-1.959-1.005-.687-.368-.73-.383-.892-.303-.093.046-.652.296-1.24.556-.589.26-1.09.49-1.113.51-.024.02 1.161.663 2.633 1.427l2.676 1.39 1.143-.591c.628-.326 1.163-.622 1.187-.66.056-.083.051-5.037-.004-5.03a2.683 2.683 0 00-.311.136zm-6.33 5.815l-.594.256c-.598.26-.481.268-1.193-.087-.474-.236-.678-.309-.767-.273-.067.026-.64.284-1.273.573-.634.288-1.174.524-1.2.524-.267 0 .175.264 1.88 1.124l2 1.009.842-.416c.462-.228 1.396-.686 2.074-1.016.678-.331 1.224-.61 1.214-.62-.01-.011-.578-.303-1.262-.65l-1.244-.628-.476.204z"/></g><defs><clipPath id="dclip0_21_61"><path transform="translate(.58)" d="M0 0h15.653v18H0z"/></clipPath></defs></svg><svg viewBox="0 0 32 32" id="ecosystem" xmlns="http://www.w3.org/2000/svg"><path d="M12 4H5.333A1.333 1.333 0 004 5.333V12a1.333 1.333 0 001.333 1.333H12A1.333 1.333 0 0013.333 12V5.333A1.333 1.333 0 0012 4zm0 14.667H5.333A1.333 1.333 0 004 20v6.667A1.333 1.333 0 005.333 28H12a1.333 1.333 0 001.333-1.333V20A1.333 1.333 0 0012 18.667zm11.333-5.334a4.667 4.667 0 100-9.334 4.667 4.667 0 000 9.334zm3.334 5.334H20A1.333 1.333 0 0018.667 20v6.667A1.333 1.333 0 0020 28h6.667A1.334 1.334 0 0028 26.667V20a1.333 1.333 0 00-1.333-1.333z"/></svg><svg viewBox="0 0 426 426" id="favicon" xmlns="http://www.w3.org/2000/svg"><path d="M0 0h426v426H0z"/><path d="M94.572 158.444h90.909v15.002h-36.155v93.258h-16.861v-93.258H94.572v-15.002zM226.525 153.185h-21.059l44.953 58.745 8.136-17.385-32.03-41.36zM271.446 211.352l-10.391 14.184 29.999 39.744 22.406.324-42.014-54.252z"/><path d="M330.201 162.2c5.073-21.205 4.565-51.674-45.655 0-49.478 50.909-75.026 103.061-79.897 125.269 31.388-57.741 49.65-82.404 84.652-118.419 37.095-38.168 40.9-19.573 40.9-6.85z"/></svg><svg viewBox="0 0 33 32" id="investor" xmlns="http://www.w3.org/2000/svg"><g clip-path="url(#gclip0_21_1617)"><path d="M17.476 30.855v-12a2.857 2.857 0 015.715 0v6.285h4.571a4.572 4.572 0 014.571 4.572v1.143"/><path fill-rule="evenodd" clip-rule="evenodd" d="M.404 10.112a10.11 10.11 0 1119.76 3.03 5.714 5.714 0 00-5.545 5.713v.5A10.11 10.11 0 01.404 10.112zm10.11-7.401c.79 0 1.429.64 1.429 1.428v.647a3.429 3.429 0 012.461 2.195 1.429 1.429 0 11-2.695.953.571.571 0 00-.53-.375H9.636a.35.35 0 00-.073.69l2.348.512a3.422 3.422 0 01.032 6.677v.649a1.429 1.429 0 11-2.858 0v-.647a3.429 3.429 0 01-2.46-2.194 1.43 1.43 0 012.696-.954.57.57 0 00.53.375h1.328a.565.565 0 00.119-1.113l-2.345-.514a3.207 3.207 0 01.132-6.293V4.14c0-.79.64-1.428 1.429-1.428zm6.962 16.144v13.143h14.857v-2.286a4.571 4.571 0 00-4.571-4.572H23.19v-6.285a2.857 2.857 0 00-5.714 0z"/></g><defs><clipPath id="gclip0_21_1617"><path transform="translate(.333)" d="M0 0h32v32H0z"/></clipPath></defs></svg><svg viewBox="0 0 33 32" id="public" xmlns="http://www.w3.org/2000/svg"><path d="M16.667 29.333c-1.845 0-3.578-.35-5.2-1.05a13.485 13.485 0 01-4.234-2.85c-1.2-1.199-2.15-2.61-2.849-4.233-.7-1.623-1.05-3.357-1.05-5.2-.002-1.844.349-3.577 1.05-5.2a13.495 13.495 0 012.85-4.233 13.445 13.445 0 014.233-2.85c1.624-.7 3.357-1.05 5.2-1.05 1.842 0 3.576.35 5.2 1.05 1.624.7 3.035 1.65 4.233 2.85a13.512 13.512 0 012.85 4.233c.703 1.623 1.053 3.356 1.05 5.2-.003 1.843-.353 3.577-1.05 5.2a13.376 13.376 0 01-2.85 4.233 13.545 13.545 0 01-4.233 2.851c-1.62.701-3.354 1.051-5.2 1.05zM15.333 26.6V24c-.733 0-1.36-.26-1.882-.783a2.573 2.573 0 01-.784-1.884V20l-6.4-6.4c-.067.4-.128.8-.183 1.2-.055.4-.083.8-.084 1.2 0 2.689.884 5.044 2.65 7.067 1.768 2.022 3.995 3.2 6.683 3.533zm9.2-3.4c.445-.489.845-1.017 1.2-1.583.356-.566.65-1.155.883-1.766.233-.612.41-1.24.533-1.884A10.5 10.5 0 0027.333 16c0-2.178-.605-4.167-1.817-5.967a10.273 10.273 0 00-4.85-3.9v.534c0 .733-.26 1.361-.782 1.884A2.561 2.561 0 0118 9.333h-2.667V12c0 .378-.128.695-.384.95a1.285 1.285 0 01-.949.383h-2.667V16h8c.378 0 .695.128.951.384s.384.572.383.95v4H22c.578 0 1.1.172 1.567.517.466.345.789.794.966 1.349z"/></svg><svg viewBox="0 0 18 18" id="report" xmlns="http://www.w3.org/2000/svg"><path d="M9 12.75c.213 0 .39-.072.535-.216A.723.723 0 009.75 12a.73.73 0 00-.216-.534A.724.724 0 009 11.25a.724.724 0 00-.534.216.73.73 0 00-.216.534c0 .212.072.39.216.535A.72.72 0 009 12.75zm-.75-3h1.5v-4.5h-1.5v4.5zm-2.063 6L2.25 11.812V6.189L6.188 2.25h5.625l3.937 3.938v5.625l-3.938 3.937H6.189z"/></svg><svg viewBox="0 0 19 18" id="telegram" xmlns="http://www.w3.org/2000/svg"><path fill-rule="evenodd" clip-rule="evenodd" d="M3.136 2.636A8.972 8.972 0 019.5 0a8.972 8.972 0 016.364 2.636A8.972 8.972 0 0118.5 9a8.971 8.971 0 01-2.636 6.364A8.972 8.972 0 019.5 18a8.972 8.972 0 01-6.364-2.636A8.971 8.971 0 01.5 9a8.972 8.972 0 012.636-6.364zm6.421 3.645a433.48 433.48 0 00-5.37 2.361c-.435.177-.664.35-.685.52-.035.286.316.399.794.552.065.02.132.043.201.066.47.156 1.103.338 1.432.345.298.007.63-.119.998-.376 2.508-1.729 3.803-2.603 3.885-2.621.057-.014.136-.03.19.018.054.05.049.142.043.167-.035.151-1.412 1.459-2.125 2.135-.222.211-.38.36-.412.395-.072.077-.146.149-.217.219-.437.43-.764.752.018 1.278.376.253.677.463.977.671.328.228.655.456 1.078.739.108.072.211.147.311.22.382.277.725.527 1.148.487.246-.023.5-.26.63-.964.304-1.665.904-5.272 1.043-6.76a1.7 1.7 0 00-.016-.37.399.399 0 00-.13-.254.597.597 0 00-.358-.11c-.346.007-.877.196-3.435 1.282z"/></svg><svg viewBox="0 0 32 32" id="token_team" xmlns="http://www.w3.org/2000/svg"><path d="M16 13.333a5.333 5.333 0 100-10.666 5.333 5.333 0 000 10.666zm-8.667 4a3.333 3.333 0 100-6.667 3.333 3.333 0 000 6.667zM28 14a3.333 3.333 0 11-6.667 0A3.333 3.333 0 0128 14zm-12 .667a6.667 6.667 0 016.667 6.666v8H9.333v-8A6.667 6.667 0 0116 14.667zm-9.333 6.666c0-.924.133-1.816.384-2.658l-.227.018a4.667 4.667 0 00-4.157 4.64v6h4v-8zm22.666 8v-6a4.666 4.666 0 00-4.384-4.658c.25.842.384 1.734.384 2.658v8h4z"/></svg><svg viewBox="0 0 15 18" id="tonviewer" xmlns="http://www.w3.org/2000/svg"><path d="M2.1 9L7.5.6 12.9 9l-5.4 8.4L2.1 9z"/><path d="M7.5 17.4V9H3.3l4.2 8.4z"/><path d="M7.5 17.4V9h4.2l-4.2 8.4zM7.5 9V.6L3.3 9h4.2zM7.5 9V.6L11.7 9H7.5z"/><path d="M7.5 17.4L.3 9h3.6l3.6 8.4zM.3 9L7.5.6 3.9 9H.3z"/><path d="M14.7 9l-7.2 8.4L11.1 9h3.6zM7.5.6L14.7 9h-3.6L7.5.6z"/></svg><svg viewBox="0 0 16 18" id="uniswap" xmlns="http://www.w3.org/2000/svg"><g clip-path="url(#mclip0_21_41)"><path d="M6.13 4.096c-.195-.028-.204-.037-.111-.046.176-.028.585.009.873.074.668.158 1.272.566 1.913 1.282l.167.195.242-.038c1.03-.167 2.09-.037 2.972.372.241.111.622.334.669.39.018.019.046.14.065.26.065.437.037.762-.103 1.013-.074.139-.074.176-.027.297.037.093.148.158.25.158.223 0 .455-.353.567-.846l.046-.195.084.093c.474.53.845 1.263.9 1.784l.02.139-.084-.12a1.568 1.568 0 00-.446-.475c-.316-.213-.65-.278-1.533-.325-.798-.046-1.253-.111-1.7-.26-.76-.25-1.15-.576-2.052-1.774-.4-.53-.65-.817-.9-1.059-.549-.529-1.097-.808-1.812-.919z"/><path d="M13.05 5.276c.018-.353.065-.586.167-.8a.638.638 0 01.083-.157c.01 0-.009.065-.037.14-.074.204-.083.491-.037.817.065.418.093.473.539.928.204.214.446.483.538.595l.158.204-.158-.148c-.195-.186-.64-.54-.743-.586-.065-.037-.074-.037-.12.01-.037.037-.047.093-.047.362-.01.418-.065.678-.204.947-.074.14-.084.112-.019-.046.047-.12.056-.177.056-.576 0-.808-.093-1.003-.66-1.328a6.937 6.937 0 00-.52-.27 2.058 2.058 0 01-.25-.12c.018-.019.566.139.78.232.325.13.38.14.418.13.028-.028.046-.102.056-.334zM6.51 6.66c-.39-.54-.64-1.375-.584-1.997l.018-.196.093.019c.167.028.455.14.595.223.371.223.538.53.696 1.291.047.223.112.483.14.567.046.139.222.464.371.668.102.149.037.223-.195.205-.353-.038-.827-.363-1.133-.78zM12.576 10.7c-1.84-.743-2.49-1.384-2.49-2.47 0-.159.01-.289.01-.289.01 0 .074.056.158.121.371.297.79.427 1.95.594.678.103 1.068.177 1.421.298 1.124.371 1.82 1.133 1.988 2.164.046.297.019.864-.056 1.16-.065.233-.25.66-.297.67-.01 0-.028-.047-.028-.121-.018-.39-.213-.762-.538-1.05-.39-.334-.892-.585-2.118-1.077zM11.276 11.006a2.2 2.2 0 00-.093-.39l-.047-.14.084.103c.12.14.213.306.297.539.065.176.065.232.065.52 0 .278-.01.344-.065.501a1.68 1.68 0 01-.39.623c-.334.343-.77.529-1.393.613-.112.009-.427.037-.706.055-.697.037-1.161.112-1.579.26-.056.019-.111.038-.12.028-.02-.018.269-.185.5-.297.326-.158.66-.241 1.394-.371.362-.056.734-.13.827-.168.92-.287 1.374-1.003 1.226-1.876z"/><path d="M12.12 12.502c-.24-.53-.296-1.031-.166-1.505.018-.046.037-.093.055-.093.019 0 .075.028.13.065.112.074.344.204.939.53.752.408 1.179.724 1.476 1.086.26.316.418.678.492 1.124.047.25.02.854-.046 1.105-.204.79-.669 1.421-1.347 1.784a1.286 1.286 0 01-.195.092c-.009 0 .028-.092.084-.204.223-.474.25-.929.084-1.44-.103-.315-.316-.696-.744-1.337-.51-.743-.631-.938-.761-1.207zM5.201 15.344c.688-.576 1.533-.985 2.313-1.115.334-.056.892-.037 1.198.047.492.13.938.408 1.17.752.223.334.325.622.428 1.263.037.25.083.51.092.567.075.334.223.594.41.733.287.214.789.223 1.28.037.085-.027.159-.055.159-.046.018.019-.232.186-.4.27-.232.12-.418.157-.668.157-.446 0-.827-.232-1.133-.696a5.214 5.214 0 01-.307-.613c-.325-.753-.492-.975-.873-1.226-.334-.214-.762-.26-1.087-.103-.427.205-.538.753-.241 1.087.12.14.343.251.53.279a.567.567 0 00.64-.567c0-.223-.083-.353-.306-.455-.298-.13-.623.019-.613.307 0 .12.055.195.176.25.074.038.074.038.019.028-.27-.055-.335-.39-.121-.603.26-.26.808-.149.994.213.074.149.083.446.018.632-.158.409-.603.622-1.059.501-.306-.083-.436-.167-.808-.548-.65-.668-.9-.798-1.83-.938l-.176-.028.195-.185z"/><path fill-rule="evenodd" clip-rule="evenodd" d="M.316.4C2.48 3.027 5.814 7.114 5.98 7.336c.14.186.084.363-.148.493-.13.074-.4.148-.53.148a.67.67 0 01-.445-.195c-.084-.083-.446-.613-1.264-1.885a120.485 120.485 0 00-1.16-1.793c-.038-.018-.038-.018 1.095 2.006.716 1.273.948 1.728.948 1.784 0 .12-.037.186-.186.353-.25.278-.362.594-.446 1.254-.093.733-.344 1.253-1.059 2.136-.418.52-.483.613-.585.826-.13.26-.167.41-.186.743-.018.353.019.576.121.91.093.298.195.493.446.874.214.334.344.585.344.678 0 .074.018.074.353 0 .798-.186 1.458-.502 1.82-.892.223-.241.279-.371.279-.706 0-.213-.01-.26-.065-.39-.093-.204-.27-.371-.65-.631-.502-.344-.716-.623-.771-.994-.047-.316.009-.53.287-1.115.288-.604.363-.854.41-1.467.027-.39.073-.548.185-.67.12-.13.223-.176.51-.213.474-.065.78-.185 1.022-.418a.873.873 0 00.316-.678l.01-.213-.121-.13C6.074 6.65.028 0 0 0c-.01 0 .14.176.316.4zm2.851 13.207a.383.383 0 00-.12-.511c-.159-.102-.4-.056-.4.084 0 .037.019.074.074.092.084.047.093.093.028.195-.065.103-.065.195.019.26.13.103.306.047.4-.12zM6.929 8.721c-.223.065-.437.307-.502.548-.037.149-.018.418.047.502.102.13.195.167.455.167.51 0 .947-.223.994-.492.046-.223-.149-.53-.418-.669a.944.944 0 00-.576-.056zm.594.465c.075-.112.047-.232-.093-.316-.25-.158-.631-.028-.631.214 0 .12.195.25.38.25.121 0 .289-.074.344-.148z"/></g><defs><clipPath id="mclip0_21_41"><path d="M0 0h15.3v18H0z"/></clipPath></defs></svg></svg>