<svg width="20" height="20" viewBox="0 0 20 20" fill="none" xmlns="http://www.w3.org/2000/svg">
<path d="M9.99998 10.4165C9.22643 10.4165 8.48457 10.7238 7.93759 11.2708C7.3906 11.8178 7.08331 12.5596 7.08331 13.3332C7.08331 14.1067 7.3906 14.8486 7.93759 15.3956C8.48457 15.9425 9.22643 16.2498 9.99998 16.2498C10.7735 16.2498 11.5154 15.9425 12.0624 15.3956C12.6094 14.8486 12.9166 14.1067 12.9166 13.3332C12.9166 12.5596 12.6094 11.8178 12.0624 11.2708C11.5154 10.7238 10.7735 10.4165 9.99998 10.4165ZM8.74998 13.3332C8.74998 13.0017 8.88168 12.6837 9.1161 12.4493C9.35052 12.2149 9.66846 12.0832 9.99998 12.0832C10.3315 12.0832 10.6494 12.2149 10.8839 12.4493C11.1183 12.6837 11.25 13.0017 11.25 13.3332C11.25 13.6647 11.1183 13.9826 10.8839 14.2171C10.6494 14.4515 10.3315 14.5832 9.99998 14.5832C9.66846 14.5832 9.35052 14.4515 9.1161 14.2171C8.88168 13.9826 8.74998 13.6647 8.74998 13.3332Z" fill="white"/>
<path d="M14.605 4.26324L11.9558 0.549072L2.215 8.33074L1.675 8.3249V8.33324H1.25V18.3332H18.75V8.33324H17.9483L16.3533 3.66741L14.605 4.26324ZM16.1875 8.33324H7.83083L14.055 6.21157L15.3233 5.80574L16.1875 8.33324ZM12.9583 4.82491L6.53333 7.01491L11.6217 2.94991L12.9583 4.82491ZM2.91667 15.1407V11.5241C3.26848 11.3999 3.58804 11.1986 3.85192 10.9348C4.1158 10.6711 4.31731 10.3517 4.44167 9.9999H15.5583C15.6826 10.3518 15.884 10.6714 16.1479 10.9353C16.4118 11.1992 16.7314 11.4007 17.0833 11.5249V15.1416C16.7314 15.2658 16.4118 15.4673 16.1479 15.7312C15.884 15.9951 15.6826 16.3147 15.5583 16.6666H4.44333C4.31849 16.3146 4.11664 15.995 3.85252 15.731C3.5884 15.4671 3.26867 15.2654 2.91667 15.1407Z" fill="white"/>
</svg>
