<svg width="18" height="18" viewBox="0 0 18 18" fill="none" xmlns="http://www.w3.org/2000/svg">
<path d="M2.625 2.24988H3.75V1.34988C3.75 1.01988 4.02 0.749878 4.35 0.749878H7.65C7.98 0.749878 8.25 1.01988 8.25 1.34988V2.24988H9.375C9.67337 2.24988 9.95952 2.3684 10.1705 2.57938C10.3815 2.79036 10.5 3.07651 10.5 3.37488V3.74988H16.5V14.9999H10.5V15.3749C10.5 15.6732 10.3815 15.9594 10.1705 16.1704C9.95952 16.3814 9.67337 16.4999 9.375 16.4999H2.625C2.32663 16.4999 2.04048 16.3814 1.8295 16.1704C1.61853 15.9594 1.5 15.6732 1.5 15.3749V3.37488C1.5 3.07651 1.61853 2.79036 1.8295 2.57938C2.04048 2.3684 2.32663 2.24988 2.625 2.24988ZM13.5 5.24988V6.74988H15V5.24988H13.5ZM10.5 5.24988V6.74988H12V5.24988H10.5ZM7.5 5.24988V6.74988H9V5.24988H7.5ZM10.5 11.9999V13.4999H12V11.9999H10.5ZM13.5 11.9999V13.4999H15V11.9999H13.5ZM7.5 11.9999V13.4999H9V11.9999H7.5Z" fill="white"/>
</svg>
