<svg width="18" height="18" viewBox="0 0 18 18" fill="none" xmlns="http://www.w3.org/2000/svg">
<path d="M11.88 9.51825L11.8305 9.53325C11.7297 9.56319 11.6252 9.57884 11.52 9.57975C11.0625 9.57975 10.8045 9.27075 10.9425 8.889C11.0445 8.61 11.3108 8.3745 11.6363 8.26575C12.1403 8.082 12.4928 7.66275 12.4928 7.1745C12.4928 6.51675 11.853 5.98425 11.064 5.98425C10.275 5.98425 9.63528 6.51675 9.63528 7.1745V10.8255C9.63528 11.703 9.12678 12.4733 8.36553 12.909C7.93047 13.1568 7.4382 13.2866 6.93753 13.2855C5.44953 13.2855 4.23903 12.1823 4.23903 10.8255C4.23903 10.3935 4.36203 9.98775 4.57728 9.63525C4.91028 9.08775 5.46528 8.67 6.12978 8.4795C6.24478 8.443 6.35978 8.42475 6.47478 8.42475C6.93378 8.42475 7.19328 8.73525 7.05453 9.11775C6.96003 9.378 6.70503 9.6015 6.40878 9.72C6.37356 9.73171 6.33878 9.74471 6.30453 9.759C5.83353 9.954 5.50878 10.3575 5.50878 10.8255C5.50878 11.4832 6.14853 12.0157 6.93753 12.0157C7.72653 12.0157 8.36553 11.4832 8.36553 10.8255V7.1745C8.36553 6.297 8.87478 5.52675 9.63603 5.091C10.0711 4.84319 10.5633 4.7134 11.064 4.7145C12.552 4.7145 13.7625 5.81775 13.7625 7.1745C13.7617 7.59484 13.6446 8.00677 13.4243 8.36475C13.0928 8.90925 12.54 9.32625 11.88 9.51825ZM1.50153 9C1.50153 13.1423 4.85928 16.5 9.00153 16.5C13.1438 16.5 16.5015 13.1423 16.5015 9C16.5015 4.85775 13.1438 1.5 9.00153 1.5C4.85928 1.5 1.50153 4.85775 1.50153 9Z" fill="white"/>
</svg>
