<svg width="18" height="18" viewBox="0 0 18 18" fill="none" xmlns="http://www.w3.org/2000/svg">
<path d="M16.05 10.6875L10.6875 16.05C10.5375 16.2 10.3687 16.3125 10.1812 16.3875C9.99375 16.4625 9.80625 16.5 9.61875 16.5C9.43125 16.5 9.24375 16.4625 9.05625 16.3875C8.86875 16.3125 8.7 16.2 8.55 16.05L1.93125 9.43125C1.79375 9.29375 1.6875 9.1345 1.6125 8.9535C1.5375 8.7725 1.5 8.58175 1.5 8.38125V3C1.5 2.5875 1.647 2.2345 1.941 1.941C2.235 1.6475 2.588 1.5005 3 1.5H8.38125C8.58125 1.5 8.775 1.54075 8.9625 1.62225C9.15 1.70375 9.3125 1.813 9.45 1.95L16.05 8.56875C16.2 8.71875 16.3095 8.8875 16.3785 9.075C16.4475 9.2625 16.4818 9.45 16.4813 9.6375C16.4808 9.825 16.4465 10.0095 16.3785 10.191C16.3105 10.3725 16.201 10.538 16.05 10.6875ZM4.875 6C5.1875 6 5.45325 5.89075 5.67225 5.67225C5.89125 5.45375 6.0005 5.188 6 4.875C5.9995 4.562 5.89025 4.2965 5.67225 4.0785C5.45425 3.8605 5.1885 3.751 4.875 3.75C4.5615 3.749 4.296 3.8585 4.0785 4.0785C3.861 4.2985 3.7515 4.564 3.75 4.875C3.7485 5.186 3.858 5.45175 4.0785 5.67225C4.299 5.89275 4.5645 6.002 4.875 6Z" fill="white"/>
</svg>
