<svg width="33" height="32" viewBox="0 0 33 32" fill="none" xmlns="http://www.w3.org/2000/svg">
<g clip-path="url(#clip0_21_1617)">
<path d="M17.4763 30.8548V18.8548C17.4763 18.0971 17.7773 17.3703 18.3131 16.8345C18.8489 16.2987 19.5756 15.9977 20.3334 15.9977C21.0912 15.9977 21.8179 16.2987 22.3537 16.8345C22.8895 17.3703 23.1905 18.0971 23.1905 18.8548V25.1405H27.762C28.9744 25.1405 30.1371 25.6222 30.9945 26.4795C31.8518 27.3368 32.3334 28.4995 32.3334 29.712V30.8548" fill="white"/>
<path fill-rule="evenodd" clip-rule="evenodd" d="M0.404237 10.112C0.406812 8.65626 0.723729 7.21828 1.33332 5.89635C1.9429 4.57442 2.83078 3.39973 3.93624 2.4526C5.0417 1.50547 6.33866 0.808242 7.73844 0.408594C9.13821 0.00894693 10.6078 -0.0836937 12.0467 0.137007C13.4856 0.357708 14.8598 0.886544 16.0755 1.68735C17.2911 2.48816 18.3195 3.54206 19.0902 4.77697C19.861 6.01188 20.356 7.39868 20.5414 8.84255C20.7267 10.2864 20.5981 11.7533 20.1642 13.1428C18.6786 13.1868 17.2686 13.8079 16.2333 14.8743C15.1981 15.9407 14.619 17.3686 14.6191 18.8548V19.3554C13.0795 20.0395 11.3934 20.328 9.71398 20.1947C8.03455 20.0614 6.41506 19.5105 5.00269 18.5921C3.59033 17.6737 2.42987 16.4168 1.62679 14.9359C0.823701 13.4549 0.403454 11.7967 0.404237 10.112ZM10.514 2.71083C11.3048 2.71083 11.9425 3.35083 11.9425 4.1394V4.78626C12.5042 4.9156 13.0242 5.18446 13.4545 5.568C13.8848 5.95153 14.2114 6.43735 14.4042 6.98054C14.4668 7.15749 14.4939 7.34503 14.484 7.53246C14.4742 7.71989 14.4274 7.90353 14.3466 8.0729C14.2657 8.24228 14.1523 8.39406 14.0127 8.5196C13.8732 8.64513 13.7103 8.74196 13.5334 8.80454C13.3564 8.86713 13.1689 8.89425 12.9815 8.88435C12.794 8.87446 12.6104 8.82774 12.441 8.74688C12.2716 8.66601 12.1199 8.55258 11.9943 8.41305C11.8688 8.27352 11.772 8.11063 11.7094 7.93369C11.6695 7.82476 11.5974 7.73056 11.5027 7.66361C11.4079 7.59665 11.2951 7.5601 11.1791 7.55883H9.63624C9.55093 7.56031 9.4691 7.59293 9.40617 7.65054C9.34323 7.70816 9.30353 7.78679 9.29454 7.87164C9.28555 7.95649 9.30789 8.0417 9.35735 8.11122C9.40682 8.18074 9.47999 8.22979 9.56309 8.24911L11.9105 8.76111C12.6694 8.92798 13.3489 9.34817 13.8373 9.95257C14.3256 10.557 14.5937 11.3096 14.5974 12.0866C14.6011 12.8636 14.3403 13.6188 13.8577 14.2278C13.3752 14.8369 12.6998 15.2636 11.9425 15.4377V16.0868C11.9425 16.4657 11.792 16.8291 11.5241 17.097C11.2562 17.3649 10.8928 17.5154 10.514 17.5154C10.1351 17.5154 9.77171 17.3649 9.5038 17.097C9.23589 16.8291 9.08538 16.4657 9.08538 16.0868V15.44C8.5241 15.3103 8.00454 15.0413 7.57469 14.6578C7.14484 14.2742 6.81855 13.7886 6.62595 13.2457C6.49956 12.8883 6.5203 12.4954 6.68362 12.1533C6.84693 11.8113 7.13945 11.5481 7.49681 11.4217C7.85417 11.2953 8.2471 11.316 8.58917 11.4794C8.93124 11.6427 9.19441 11.9352 9.32081 12.2925C9.3607 12.4015 9.4328 12.4957 9.52753 12.5626C9.62225 12.6296 9.7351 12.6661 9.85109 12.6674H11.1791C11.316 12.664 11.447 12.611 11.5478 12.5182C11.6485 12.4254 11.712 12.2991 11.7266 12.1629C11.7411 12.0268 11.7057 11.8899 11.6268 11.7779C11.5479 11.666 11.4311 11.5865 11.2979 11.5543L8.95281 11.04C8.22639 10.8816 7.57756 10.4758 7.11729 9.89196C6.65703 9.30809 6.41394 8.58244 6.4296 7.83913C6.44526 7.09582 6.7187 6.38105 7.20314 5.81709C7.68759 5.25312 8.35294 4.87499 9.08538 4.7474V4.1394C9.08538 3.34854 9.72538 2.71083 10.514 2.71083ZM17.4762 18.8548V31.9977H32.3334V29.712C32.3334 28.4995 31.8517 27.3368 30.9944 26.4795C30.1371 25.6222 28.9744 25.1405 27.7619 25.1405H23.1905V18.8548C23.1905 18.0971 22.8895 17.3703 22.3537 16.8345C21.8179 16.2987 21.0911 15.9977 20.3334 15.9977C19.5756 15.9977 18.8489 16.2987 18.3131 16.8345C17.7773 17.3703 17.4762 18.0971 17.4762 18.8548Z" fill="white"/>
</g>
<defs>
<clipPath id="clip0_21_1617">
<rect width="32" height="32" fill="white" transform="translate(0.333374)"/>
</clipPath>
</defs>
</svg>
