<svg width="20" height="20" viewBox="0 0 20 20" fill="none" xmlns="http://www.w3.org/2000/svg">
<path d="M10 18.3332C8.84724 18.3332 7.76391 18.1143 6.75002 17.6765C5.73613 17.2387 4.85419 16.6451 4.10419 15.8957C3.35419 15.1462 2.76058 14.2643 2.32335 13.2498C1.88613 12.2354 1.66724 11.1521 1.66669 9.99984C1.66613 8.84762 1.88502 7.76428 2.32335 6.74984C2.76169 5.73539 3.3553 4.85345 4.10419 4.104C4.85308 3.35456 5.73502 2.76095 6.75002 2.32317C7.76502 1.88539 8.84835 1.6665 10 1.6665C11.1517 1.6665 12.235 1.88539 13.25 2.32317C14.265 2.76095 15.147 3.35456 15.8959 4.104C16.6447 4.85345 17.2386 5.73539 17.6775 6.74984C18.1164 7.76428 18.335 8.84762 18.3334 9.99984C18.3317 11.1521 18.1128 12.2354 17.6767 13.2498C17.2406 14.2643 16.647 15.1462 15.8959 15.8957C15.1447 16.6451 14.2628 17.239 13.25 17.6773C12.2372 18.1157 11.1539 18.3343 10 18.3332ZM7.58335 16.2082L8.58335 13.9165C8.00002 13.7082 7.49669 13.3854 7.07335 12.9482C6.65002 12.5109 6.32002 12.0004 6.08335 11.4165L3.79169 12.3748C4.11113 13.2637 4.60419 14.0415 5.27085 14.7082C5.93752 15.3748 6.70835 15.8748 7.58335 16.2082ZM6.08335 8.58317C6.31947 7.99984 6.64947 7.48956 7.07335 7.05234C7.49724 6.61512 8.00058 6.29206 8.58335 6.08317L7.62502 3.7915C6.73613 4.12484 5.95835 4.62484 5.29169 5.2915C4.62502 5.95817 4.12502 6.73595 3.79169 7.62484L6.08335 8.58317ZM10 12.4998C10.6945 12.4998 11.2847 12.2568 11.7709 11.7707C12.257 11.2846 12.5 10.6943 12.5 9.99984C12.5 9.30539 12.257 8.71512 11.7709 8.229C11.2847 7.74289 10.6945 7.49984 10 7.49984C9.30558 7.49984 8.7153 7.74289 8.22919 8.229C7.74308 8.71512 7.50002 9.30539 7.50002 9.99984C7.50002 10.6943 7.74308 11.2846 8.22919 11.7707C8.7153 12.2568 9.30558 12.4998 10 12.4998ZM12.4167 16.2082C13.2917 15.8748 14.0592 15.3784 14.7192 14.719C15.3792 14.0596 15.8756 13.2921 16.2084 12.4165L13.9167 11.4165C13.7084 11.9998 13.3889 12.5034 12.9584 12.9273C12.5278 13.3512 12.0278 13.6809 11.4584 13.9165L12.4167 16.2082ZM13.9167 8.5415L16.2084 7.58317C15.875 6.70817 15.3786 5.94095 14.7192 5.2815C14.0597 4.62206 13.2922 4.12539 12.4167 3.7915L11.4584 6.12484C12.0278 6.33317 12.5209 6.64928 12.9375 7.07317C13.3542 7.49706 13.6806 7.9865 13.9167 8.5415Z" fill="white"/>
</svg>
