<svg width="18" height="18" viewBox="0 0 18 18" fill="none" xmlns="http://www.w3.org/2000/svg">
<path d="M6.75 9C7.14782 9 7.52936 8.84196 7.81066 8.56066C8.09196 8.27936 8.25 7.89782 8.25 7.5C8.25 7.10218 8.09196 6.72064 7.81066 6.43934C7.52936 6.15804 7.14782 6 6.75 6C6.35218 6 5.97064 6.15804 5.68934 6.43934C5.40804 6.72064 5.25 7.10218 5.25 7.5C5.25 7.89782 5.40804 8.27936 5.68934 8.56066C5.97064 8.84196 6.35218 9 6.75 9ZM9 0.75L16.125 4.875V13.125L9 17.25L1.875 13.125V4.875L9 0.75ZM3.375 5.73975V12.2603L5.154 13.29L11.2087 8.85L14.625 10.9005V5.7405L9 2.4825L3.375 5.73975Z" fill="white"/>
</svg>
