<svg width="18" height="18" viewBox="0 0 18 18" fill="none" xmlns="http://www.w3.org/2000/svg">
<path d="M16.2825 6.53263C17.22 5.59513 16.7925 4.50013 16.2825 3.96763L14.0325 1.71763C13.0875 0.78013 12 1.20763 11.4675 1.71763L10.1925 3.00013H8.25001C6.82501 3.00013 6.00001 3.75013 5.58001 4.61263L2.25001 7.94263V10.9426L1.71751 11.4676C0.780008 12.4126 1.20751 13.5001 1.71751 14.0326L3.96751 16.2826C4.37251 16.6876 4.80751 16.8376 5.22001 16.8376C5.75251 16.8376 6.24001 16.5751 6.53251 16.2826L8.55751 14.2501H11.25C12.525 14.2501 13.17 13.4551 13.4025 12.6751C14.25 12.4501 14.715 11.8051 14.9025 11.1751C16.065 10.8751 16.5 9.77263 16.5 9.00013V6.75013H16.0575L16.2825 6.53263ZM15 9.00013C15 9.33763 14.8575 9.75013 14.25 9.75013H13.5V10.5001C13.5 10.8376 13.3575 11.2501 12.75 11.2501H12V12.0001C12 12.3376 11.8575 12.7501 11.25 12.7501H7.94251L5.48251 15.2101C5.25001 15.4276 5.11501 15.3001 5.03251 15.2176L2.79001 12.9826C2.57251 12.7501 2.70001 12.6151 2.78251 12.5326L3.75001 11.5576V8.55763L5.25001 7.05763V8.25013C5.25001 9.15763 5.85001 10.5001 7.50001 10.5001C9.15001 10.5001 9.75001 9.15763 9.75001 8.25013H15V9.00013ZM15.2175 5.46763L13.9425 6.75013H8.25001V8.25013C8.25001 8.58763 8.10751 9.00013 7.50001 9.00013C6.89251 9.00013 6.75001 8.58763 6.75001 8.25013V6.00013C6.75001 5.65513 6.87751 4.50013 8.25001 4.50013H10.8075L12.5175 2.79013C12.75 2.57263 12.885 2.70013 12.9675 2.78263L15.21 5.01763C15.4275 5.25013 15.3 5.38513 15.2175 5.46763Z" fill="white"/>
</svg>
