<svg width="33" height="32" viewBox="0 0 33 32" fill="none" xmlns="http://www.w3.org/2000/svg">
<path d="M16.6667 29.3333C14.8223 29.3333 13.0889 28.9831 11.4667 28.2826C9.84449 27.5822 8.43338 26.6324 7.23338 25.4333C6.03338 24.2342 5.0836 22.8231 4.38404 21.2C3.68449 19.5768 3.33426 17.8435 3.33338 16C3.33249 14.1564 3.68271 12.4231 4.38404 10.8C5.08538 9.17685 6.03515 7.76574 7.23338 6.56663C8.4316 5.36751 9.84271 4.41774 11.4667 3.71729C13.0907 3.01685 14.824 2.66663 16.6667 2.66663C18.5094 2.66663 20.2427 3.01685 21.8667 3.71729C23.4907 4.41774 24.9018 5.36751 26.1 6.56663C27.2983 7.76574 28.2485 9.17685 28.9507 10.8C29.6529 12.4231 30.0027 14.1564 30 16C29.9974 17.8435 29.6472 19.5768 28.9494 21.2C28.2516 22.8231 27.3018 24.2342 26.1 25.4333C24.8983 26.6324 23.4872 27.5826 21.8667 28.284C20.2463 28.9853 18.5129 29.3351 16.6667 29.3333ZM15.3334 26.6V24C14.6 24 13.9725 23.7391 13.4507 23.2173C12.9289 22.6955 12.6676 22.0675 12.6667 21.3333V20L6.26671 13.6C6.20004 14 6.13915 14.4 6.08404 14.8C6.02893 15.2 6.00093 15.6 6.00004 16C6.00004 18.6888 6.8836 21.0444 8.65071 23.0666C10.4178 25.0888 12.6454 26.2666 15.3334 26.6ZM24.5334 23.2C24.9778 22.7111 25.3778 22.1835 25.7334 21.6173C26.0889 21.0511 26.3832 20.4622 26.616 19.8506C26.8489 19.2391 27.0267 18.6111 27.1494 17.9666C27.272 17.3222 27.3334 16.6666 27.3334 16C27.3334 13.8222 26.7276 11.8333 25.516 10.0333C24.3045 8.23329 22.688 6.93329 20.6667 6.13329V6.66663C20.6667 7.39996 20.4058 8.02796 19.884 8.55063C19.3623 9.07329 18.7343 9.33418 18 9.33329H15.3334V12C15.3334 12.3777 15.2054 12.6946 14.9494 12.9506C14.6934 13.2066 14.3769 13.3342 14 13.3333H11.3334V16H19.3334C19.7112 16 20.028 16.128 20.284 16.384C20.54 16.64 20.6676 16.9564 20.6667 17.3333V21.3333H22C22.5778 21.3333 23.1 21.5057 23.5667 21.8506C24.0334 22.1955 24.3556 22.6453 24.5334 23.2Z" fill="white"/>
</svg>
