<svg width="18" height="18" viewBox="0 0 18 18" fill="none" xmlns="http://www.w3.org/2000/svg">
<path d="M12.75 2.50504C13.8902 3.16331 14.8369 4.1101 15.4952 5.25025C16.1535 6.39041 16.5 7.68375 16.5 9.00028C16.5 10.3168 16.1534 11.6101 15.4952 12.7503C14.8369 13.8904 13.8901 14.8372 12.7499 15.4955C11.6098 16.1537 10.3164 16.5003 8.99988 16.5002C7.68335 16.5002 6.39001 16.1536 5.24988 15.4954C4.10974 14.8371 3.16297 13.8903 2.50473 12.7501C1.84648 11.6099 1.49997 10.3166 1.5 9.00004L1.50375 8.75704C1.54575 7.46178 1.92266 6.19951 2.59773 5.09329C3.2728 3.98706 4.22299 3.07463 5.35567 2.44495C6.48835 1.81528 7.76486 1.48984 9.06075 1.50037C10.3566 1.5109 11.6277 1.85704 12.75 2.50504ZM9 4.50004C8.80109 4.50004 8.61032 4.57906 8.46967 4.71971C8.32902 4.86036 8.25 5.05113 8.25 5.25004C7.65326 5.25004 7.08097 5.48709 6.65901 5.90905C6.23705 6.33101 6 6.9033 6 7.50004C6 8.09678 6.23705 8.66908 6.65901 9.09103C7.08097 9.51299 7.65326 9.75004 8.25 9.75004V11.25C8.12562 11.2569 8.00143 11.2333 7.88824 11.1813C7.77505 11.1293 7.67627 11.0504 7.6005 10.9515L7.5495 10.8758C7.44689 10.7103 7.28394 10.5912 7.0951 10.5437C6.90627 10.4962 6.70636 10.524 6.53765 10.6212C6.36893 10.7184 6.24464 10.8774 6.19105 11.0646C6.13747 11.2518 6.15878 11.4525 6.2505 11.6243C6.44193 11.9563 6.71498 12.2339 7.04378 12.4308C7.37257 12.6277 7.7462 12.7373 8.12925 12.7493H8.25C8.24984 12.9331 8.3172 13.1106 8.43929 13.248C8.56137 13.3855 8.72968 13.4733 8.91225 13.4948L9 13.5C9.19891 13.5 9.38968 13.421 9.53033 13.2804C9.67098 13.1397 9.75 12.949 9.75 12.75L9.882 12.7463C10.4667 12.7125 11.0152 12.452 11.4109 12.0203C11.8066 11.5885 12.0184 11.0194 12.0012 10.434C11.984 9.84859 11.7392 9.29293 11.3189 8.88512C10.8985 8.47731 10.3357 8.24948 9.75 8.25004V6.75004C10.0185 6.74104 10.2532 6.85504 10.3995 7.04854L10.4505 7.12429C10.5531 7.28978 10.7161 7.40887 10.9049 7.45638C11.0937 7.5039 11.2936 7.47611 11.4624 7.37889C11.6311 7.28168 11.7554 7.12266 11.8089 6.93546C11.8625 6.74826 11.8412 6.54756 11.7495 6.37579C11.5582 6.04365 11.2851 5.7659 10.9563 5.56889C10.6275 5.37187 10.2539 5.26212 9.87075 5.25004H9.75C9.75 5.05113 9.67098 4.86036 9.53033 4.71971C9.38968 4.57906 9.19891 4.50004 9 4.50004ZM9.75 9.75004C9.94891 9.75004 10.1397 9.82906 10.2803 9.96971C10.421 10.1104 10.5 10.3011 10.5 10.5C10.5 10.699 10.421 10.8897 10.2803 11.0304C10.1397 11.171 9.94891 11.25 9.75 11.25V9.75004ZM8.25 6.75004V8.25004C8.05109 8.25004 7.86032 8.17102 7.71967 8.03037C7.57902 7.88972 7.5 7.69895 7.5 7.50004C7.5 7.30113 7.57902 7.11036 7.71967 6.96971C7.86032 6.82906 8.05109 6.75004 8.25 6.75004Z" fill="white"/>
</svg>
