<svg width="18" height="18" viewBox="0 0 18 18" fill="none" xmlns="http://www.w3.org/2000/svg">
<path d="M9.00006 7.5C9.79571 7.5 10.5588 7.18393 11.1214 6.62132C11.684 6.05871 12.0001 5.29565 12.0001 4.5C12.0001 3.70435 11.684 2.94129 11.1214 2.37868C10.5588 1.81607 9.79571 1.5 9.00006 1.5C8.20441 1.5 7.44135 1.81607 6.87874 2.37868C6.31613 2.94129 6.00006 3.70435 6.00006 4.5C6.00006 5.29565 6.31613 6.05871 6.87874 6.62132C7.44135 7.18393 8.20441 7.5 9.00006 7.5ZM4.12506 9.75C4.62234 9.75 5.09926 9.55245 5.45089 9.20082C5.80252 8.84919 6.00006 8.37228 6.00006 7.875C6.00006 7.37772 5.80252 6.9008 5.45089 6.54917C5.09926 6.19754 4.62234 6 4.12506 6C3.62778 6 3.15087 6.19754 2.79924 6.54917C2.44761 6.9008 2.25006 7.37772 2.25006 7.875C2.25006 8.37228 2.44761 8.84919 2.79924 9.20082C3.15087 9.55245 3.62778 9.75 4.12506 9.75ZM15.7501 7.875C15.7501 8.37228 15.5525 8.84919 15.2009 9.20082C14.8493 9.55245 14.3723 9.75 13.8751 9.75C13.3778 9.75 12.9009 9.55245 12.5492 9.20082C12.1976 8.84919 12.0001 8.37228 12.0001 7.875C12.0001 7.37772 12.1976 6.9008 12.5492 6.54917C12.9009 6.19754 13.3778 6 13.8751 6C14.3723 6 14.8493 6.19754 15.2009 6.54917C15.5525 6.9008 15.7501 7.37772 15.7501 7.875ZM9.00006 8.25C9.99462 8.25 10.9484 8.64509 11.6517 9.34835C12.355 10.0516 12.7501 11.0054 12.7501 12V16.5H5.25006V12C5.25006 11.0054 5.64515 10.0516 6.34841 9.34835C7.05167 8.64509 8.0055 8.25 9.00006 8.25ZM3.75006 12C3.75006 11.4802 3.82506 10.9785 3.96606 10.5045L3.83856 10.515C3.19572 10.5856 2.60156 10.891 2.17001 11.3726C1.73846 11.8543 1.49989 12.4783 1.50006 13.125V16.5H3.75006V12ZM16.5001 16.5V13.125C16.5001 12.4563 16.245 11.8127 15.7867 11.3257C15.3284 10.8387 14.7016 10.545 14.0341 10.5045C14.1743 10.9785 14.2501 11.4802 14.2501 12V16.5H16.5001Z" fill="white"/>
</svg>
