<svg width="19" height="18" viewBox="0 0 19 18" fill="none" xmlns="http://www.w3.org/2000/svg">
<path fill-rule="evenodd" clip-rule="evenodd" d="M3.13605 2.63602C4.76473 1.00735 7.01472 0 9.5 0C11.9853 0 14.2353 1.00735 15.864 2.63602C17.4927 4.26472 18.5 6.51472 18.5 9C18.5 11.4853 17.4927 13.7353 15.864 15.3639C14.2353 16.9926 11.9853 18 9.5 18C7.01472 18 4.76473 16.9926 3.13605 15.3639C1.50735 13.7353 0.5 11.4853 0.5 9C0.5 6.51472 1.50735 4.26472 3.13605 2.63602ZM9.5574 6.28075C8.66177 6.6611 6.87177 7.44835 4.18745 8.64245C3.75155 8.81943 3.5232 8.99257 3.50243 9.16187C3.46728 9.448 3.8182 9.56065 4.29607 9.71408C4.36107 9.73495 4.42843 9.75657 4.49748 9.7795C4.96763 9.93552 5.60008 10.1181 5.92885 10.1253C6.22708 10.1319 6.55993 10.0064 6.92743 9.74872C9.4355 8.02012 10.7302 7.1464 10.8115 7.12757C10.8688 7.11427 10.9482 7.09758 11.0021 7.14643C11.056 7.1953 11.0506 7.28782 11.0449 7.31265C11.0102 7.46397 9.63268 8.77155 8.9198 9.44823C8.69757 9.65917 8.53995 9.8088 8.50772 9.84297C8.43552 9.91952 8.36195 9.99195 8.29125 10.0616C7.85448 10.4915 7.52692 10.8138 8.30937 11.3403C8.6854 11.5933 8.9863 11.8025 9.28648 12.0112C9.6143 12.2392 9.94127 12.4665 10.3643 12.7497C10.4721 12.8218 10.575 12.8967 10.6753 12.9697C11.0568 13.2474 11.3996 13.4969 11.823 13.4571C12.0691 13.434 12.3232 13.1978 12.4523 12.4932C12.7573 10.8282 13.357 7.22055 13.4956 5.73392C13.5077 5.60367 13.4924 5.437 13.4802 5.36382C13.4679 5.29065 13.4423 5.1864 13.3491 5.10923C13.2388 5.0178 13.0684 4.99853 12.9923 4.99985C12.646 5.00613 12.1146 5.19478 9.5574 6.28075Z" fill="#0098EA"/>
</svg>
