<svg width="18" height="18" viewBox="0 0 18 18" fill="none" xmlns="http://www.w3.org/2000/svg">
<g clip-path="url(#clip0_21_1151)">
<path d="M4.5 17.25C3.875 17.25 3.34375 17.0312 2.90625 16.5938C2.46875 16.1562 2.25 15.625 2.25 15C2.25 14.375 2.46875 13.8438 2.90625 13.4062C3.34375 12.9688 3.875 12.75 4.5 12.75C4.675 12.75 4.8375 12.7688 4.9875 12.8063C5.1375 12.8438 5.28125 12.8937 5.41875 12.9562L6.4875 11.625C6.1375 11.2375 5.89375 10.8 5.75625 10.3125C5.61875 9.825 5.5875 9.3375 5.6625 8.85L4.14375 8.34375C3.93125 8.65625 3.6625 8.90625 3.3375 9.09375C3.0125 9.28125 2.65 9.375 2.25 9.375C1.625 9.375 1.09375 9.15625 0.65625 8.71875C0.21875 8.28125 0 7.75 0 7.125C0 6.5 0.21875 5.96875 0.65625 5.53125C1.09375 5.09375 1.625 4.875 2.25 4.875C2.875 4.875 3.40625 5.09375 3.84375 5.53125C4.28125 5.96875 4.5 6.5 4.5 7.125V7.275L6.01875 7.8C6.26875 7.35 6.60325 6.96875 7.02225 6.65625C7.44125 6.34375 7.913 6.14375 8.4375 6.05625V4.425C7.95 4.2875 7.547 4.02175 7.2285 3.62775C6.91 3.23375 6.7505 2.7745 6.75 2.25C6.75 1.625 6.96875 1.09375 7.40625 0.65625C7.84375 0.21875 8.375 0 9 0C9.625 0 10.1562 0.21875 10.5938 0.65625C11.0312 1.09375 11.25 1.625 11.25 2.25C11.25 2.775 11.0875 3.2345 10.7625 3.6285C10.4375 4.0225 10.0375 4.288 9.5625 4.425V6.05625C10.0875 6.14375 10.5595 6.34375 10.9785 6.65625C11.3975 6.96875 11.7318 7.35 11.9813 7.8L13.5 7.275V7.125C13.5 6.5 13.7188 5.96875 14.1562 5.53125C14.5938 5.09375 15.125 4.875 15.75 4.875C16.375 4.875 16.9062 5.09375 17.3438 5.53125C17.7812 5.96875 18 6.5 18 7.125C18 7.75 17.7812 8.28125 17.3438 8.71875C16.9062 9.15625 16.375 9.375 15.75 9.375C15.35 9.375 14.9843 9.28125 14.6528 9.09375C14.3213 8.90625 14.0557 8.65625 13.8563 8.34375L12.3375 8.85C12.4125 9.3375 12.3813 9.822 12.2438 10.3035C12.1063 10.785 11.8625 11.2255 11.5125 11.625L12.5812 12.9375C12.7188 12.875 12.8625 12.8282 13.0125 12.7972C13.1625 12.7662 13.325 12.7505 13.5 12.75C14.125 12.75 14.6562 12.9688 15.0938 13.4062C15.5312 13.8438 15.75 14.375 15.75 15C15.75 15.625 15.5312 16.1562 15.0938 16.5938C14.6562 17.0312 14.125 17.25 13.5 17.25C12.875 17.25 12.3438 17.0312 11.9062 16.5938C11.4688 16.1562 11.25 15.625 11.25 15C11.25 14.75 11.2908 14.5095 11.3722 14.2785C11.4537 14.0475 11.563 13.838 11.7 13.65L10.6313 12.3187C10.1188 12.6062 9.572 12.75 8.991 12.75C8.41 12.75 7.863 12.6062 7.35 12.3187L6.3 13.65C6.4375 13.8375 6.547 14.047 6.6285 14.2785C6.71 14.51 6.7505 14.7505 6.75 15C6.75 15.625 6.53125 16.1562 6.09375 16.5938C5.65625 17.0312 5.125 17.25 4.5 17.25Z" fill="white"/>
</g>
<defs>
<clipPath id="clip0_21_1151">
<rect width="18" height="18" fill="white"/>
</clipPath>
</defs>
</svg>
