<svg width="32" height="32" viewBox="0 0 32 32" fill="none" xmlns="http://www.w3.org/2000/svg">
<path d="M16 13.3333C17.4145 13.3333 18.771 12.7714 19.7712 11.7712C20.7714 10.771 21.3333 9.41445 21.3333 7.99996C21.3333 6.58547 20.7714 5.22892 19.7712 4.22872C18.771 3.22853 17.4145 2.66663 16 2.66663C14.5855 2.66663 13.229 3.22853 12.2288 4.22872C11.2286 5.22892 10.6667 6.58547 10.6667 7.99996C10.6667 9.41445 11.2286 10.771 12.2288 11.7712C13.229 12.7714 14.5855 13.3333 16 13.3333ZM7.33334 17.3333C8.21739 17.3333 9.06524 16.9821 9.69036 16.357C10.3155 15.7319 10.6667 14.884 10.6667 14C10.6667 13.1159 10.3155 12.2681 9.69036 11.6429C9.06524 11.0178 8.21739 10.6666 7.33334 10.6666C6.44928 10.6666 5.60144 11.0178 4.97632 11.6429C4.35119 12.2681 4.00001 13.1159 4.00001 14C4.00001 14.884 4.35119 15.7319 4.97632 16.357C5.60144 16.9821 6.44928 17.3333 7.33334 17.3333ZM28 14C28 14.884 27.6488 15.7319 27.0237 16.357C26.3986 16.9821 25.5507 17.3333 24.6667 17.3333C23.7826 17.3333 22.9348 16.9821 22.3096 16.357C21.6845 15.7319 21.3333 14.884 21.3333 14C21.3333 13.1159 21.6845 12.2681 22.3096 11.6429C22.9348 11.0178 23.7826 10.6666 24.6667 10.6666C25.5507 10.6666 26.3986 11.0178 27.0237 11.6429C27.6488 12.2681 28 13.1159 28 14ZM16 14.6666C17.7681 14.6666 19.4638 15.369 20.714 16.6192C21.9643 17.8695 22.6667 19.5652 22.6667 21.3333V29.3333H9.33334V21.3333C9.33334 19.5652 10.0357 17.8695 11.286 16.6192C12.5362 15.369 14.2319 14.6666 16 14.6666ZM6.66667 21.3333C6.66667 20.4093 6.8 19.5173 7.05067 18.6746L6.824 18.6933C5.68118 18.8188 4.62489 19.3617 3.85769 20.218C3.09049 21.0743 2.66637 22.1836 2.66667 23.3333V29.3333H6.66667V21.3333ZM29.3333 29.3333V23.3333C29.3335 22.1444 28.8799 21.0004 28.0652 20.1346C27.2504 19.2688 26.136 18.7466 24.9493 18.6746C25.1987 19.5173 25.3333 20.4093 25.3333 21.3333V29.3333H29.3333Z" fill="white"/>
</svg>
