<svg width="20" height="20" viewBox="0 0 20 20" fill="none" xmlns="http://www.w3.org/2000/svg">
<path d="M1.66669 1.66675H7.50002V3.75008H12.5V1.66675H18.3334V7.50008H16.25V12.5001H18.3334V18.3334H12.5V16.2501H7.50002V18.3334H1.66669V12.5001H3.75002V7.50008H1.66669V1.66675ZM5.83335 5.83341V3.33341H3.33335V5.83341H5.83335ZM5.41669 7.50008V12.5001H7.50002V14.5834H12.5V12.5001H14.5834V7.50008H12.5V5.41675H7.50002V7.50008H5.41669ZM14.1667 14.1667V16.6667H16.6667V14.1667H14.1667ZM5.83335 14.1667H3.33335V16.6667H5.83335V14.1667ZM14.1667 3.33341V5.83341H16.6667V3.33341H14.1667Z" fill="white"/>
</svg>
