<svg xmlns="http://www.w3.org/2000/svg" width="15" height="18" viewBox="0 0 15 18" fill="none">
  <path d="M2.09961 8.99998L7.49961 0.599976L12.8996 8.99998L7.49961 17.4L2.09961 8.99998Z" fill="#89B8FF"/>
  <path d="M7.4998 17.4V9H3.2998L7.4998 17.4Z" fill="#2E5FDC"/>
  <path d="M7.5 17.4V9H11.7L7.5 17.4Z" fill="#1D2DC6"/>
  <path d="M7.4998 8.99998V0.599976L3.2998 8.99998H7.4998Z" fill="#4576F3"/>
  <path d="M7.5 8.99998V0.599976L11.7 8.99998H7.5Z" fill="#3346F6"/>
  <path d="M7.4998 17.4L0.299805 9H3.8998L7.4998 17.4Z" fill="#4486EB"/>
  <path d="M0.299805 8.99998L7.4998 0.599976L3.8998 8.99998H0.299805Z" fill="#89B8FF"/>
  <path d="M14.7 9L7.5 17.4L11.1 9H14.7Z" fill="#0F1D9D"/>
  <path d="M7.5 0.599976L14.7 8.99998H11.1L7.5 0.599976Z" fill="#213DD1"/>
</svg>