<svg width="20" height="20" viewBox="0 0 20 20" fill="none" xmlns="http://www.w3.org/2000/svg">
<g clip-path="url(#clip0_21_1164)">
<path d="M16.6666 11.6668C16.9877 11.6669 17.2963 11.7906 17.5286 12.0121C17.761 12.2336 17.8991 12.536 17.9146 12.8567C17.93 13.1773 17.8215 13.4916 17.6115 13.7344C17.4015 13.9772 17.1062 14.1299 16.7866 14.1609L16.6666 14.1668H6.35081L7.55081 15.3668C7.77811 15.5932 7.90961 15.8985 7.91808 16.2192C7.92655 16.54 7.81134 16.8517 7.59631 17.0899C7.38127 17.3281 7.08288 17.4744 6.76292 17.4987C6.44295 17.5229 6.12593 17.4232 5.87747 17.2201L5.78247 17.1343L2.59164 13.9426C1.77997 13.1309 2.30831 11.7618 3.41747 11.6718L3.53414 11.6668H16.6666ZM12.45 2.86676C12.6686 2.64792 12.9606 2.51793 13.2696 2.50192C13.5785 2.48591 13.8824 2.58502 14.1225 2.78009L14.2175 2.86592L17.4083 6.05759C18.22 6.86926 17.6916 8.23842 16.5825 8.32842L16.4658 8.33342H3.33331C3.01229 8.33326 2.70364 8.20961 2.47132 7.98808C2.23899 7.76655 2.1008 7.46414 2.08537 7.14349C2.06994 6.82285 2.17847 6.50856 2.38845 6.26575C2.59844 6.02295 2.89379 5.87023 3.21331 5.83926L3.33331 5.83342H13.6491L12.4491 4.63342C12.2151 4.39905 12.0836 4.08134 12.0836 3.75009C12.0836 3.41884 12.2159 3.10113 12.45 2.86676Z" fill="white"/>
</g>
<defs>
<clipPath id="clip0_21_1164">
<rect width="20" height="20" fill="white"/>
</clipPath>
</defs>
</svg>
