<svg width="16" height="16" viewBox="0 0 16 16" fill="none" xmlns="http://www.w3.org/2000/svg">
<g clip-path="url(#clip0_21_1135)">
<path fill-rule="evenodd" clip-rule="evenodd" d="M5.77039 0.315323C4.22412 0.765751 2.8495 1.67177 1.82587 2.91516C0.802244 4.15856 0.177137 5.68161 0.0321045 7.28561H3.68925C3.90243 4.84475 4.61012 2.47281 5.76925 0.314181L5.77039 0.315323ZM3.68925 8.71418H0.0321045C0.176835 10.3182 0.801675 11.8414 1.8251 13.085C2.84853 14.3286 4.22302 15.2349 5.76925 15.6856C4.61012 13.527 3.90243 11.155 3.68925 8.71418ZM7.60239 15.9908C6.21677 13.7932 5.36724 11.3006 5.12239 8.71418H10.8767C10.6318 11.3006 9.7823 13.7932 8.39668 15.9908C8.13208 16.0039 7.86699 16.0039 7.60239 15.9908ZM10.231 15.6845C11.777 15.2338 13.1514 14.3277 14.1748 13.0844C15.1982 11.841 15.8232 10.318 15.9681 8.71418H12.311C12.0978 11.155 11.3901 13.527 10.231 15.6856V15.6845ZM12.311 7.28561H15.9681C15.8234 5.68155 15.1985 4.15835 14.1751 2.91475C13.1517 1.67114 11.7772 0.764875 10.231 0.314181C11.3901 2.47281 12.0978 4.84475 12.311 7.28561ZM7.60239 0.00903767C7.86737 -0.00415188 8.13284 -0.00415188 8.39782 0.00903767C9.78304 2.20673 10.6322 4.69932 10.8767 7.28561H5.12353C5.37153 4.68332 6.22296 2.18847 7.60239 0.00903767Z" fill="white"/>
</g>
<defs>
<clipPath id="clip0_21_1135">
<rect width="16" height="16" fill="white"/>
</clipPath>
</defs>
</svg>
