<svg width="18" height="18" viewBox="0 0 18 18" fill="none" xmlns="http://www.w3.org/2000/svg">
<path fill-rule="evenodd" clip-rule="evenodd" d="M14.25 15.75H3.75C2.9055 15.75 2.3055 15.3818 1.941 14.8755C1.65754 14.4725 1.5037 13.9927 1.5 13.5V4.5C1.5 3.90326 1.73705 3.33097 2.15901 2.90901C2.58097 2.48705 3.15326 2.25 3.75 2.25H11.25C11.8467 2.25 12.419 2.48705 12.841 2.90901C13.2629 3.33097 13.5 3.90326 13.5 4.5V8.25H15.75C15.9489 8.25 16.1397 8.32902 16.2803 8.46967C16.421 8.61032 16.5 8.80109 16.5 9V13.5C16.5 13.8698 16.395 14.4082 16.059 14.8755C15.6937 15.3825 15.0937 15.75 14.25 15.75ZM15 10.5C15 10.3011 14.921 10.1103 14.7803 9.96967C14.6397 9.82902 14.4489 9.75 14.25 9.75C14.0511 9.75 13.8603 9.82902 13.7197 9.96967C13.579 10.1103 13.5 10.3011 13.5 10.5V13.5C13.5 13.6989 13.579 13.8897 13.7197 14.0303C13.8603 14.171 14.0511 14.25 14.25 14.25C14.4489 14.25 14.6397 14.171 14.7803 14.0303C14.921 13.8897 15 13.6989 15 13.5V10.5Z" fill="white"/>
</svg>
